<svg width="80" height="80" viewBox="0 0 80 80" fill="none" xmlns="http://www.w3.org/2000/svg">
<rect width="80" height="80" rx="40" fill="#0A1F33"/>
<path d="M22 54H58V58H22V54ZM28 48C30.2 48 32 46.2 32 44C32 43 31.6 42 31 41.4L33.6 36H34C35 36 36 35.6 36.6 35L42 37.8V38C42 40.2 43.8 42 46 42C48.2 42 50 40.2 50 38C50 37 49.6 36.2 49 35.4L51.6 30H52C54.2 30 56 28.2 56 26C56 23.8 54.2 22 52 22C49.8 22 48 23.8 48 26C48 27 48.4 28 49 28.6L46.4 34H46C45 34 44 34.4 43.4 35L38 32.4V32C38 29.8 36.2 28 34 28C31.8 28 30 29.8 30 32C30 33 30.4 34 31 34.6L28.4 40H28C25.8 40 24 41.8 24 44C24 46.2 25.8 48 28 48Z" fill="#FAFAFA"/>
</svg>
