<svg width="80" height="80" viewBox="0 0 80 80" fill="none" xmlns="http://www.w3.org/2000/svg">
<rect width="80" height="80" rx="40" fill="#8F48A3"/>
<path d="M47.7832 41.8832C50.0665 43.4332 51.6665 45.5332 51.6665 48.3332V53.3332H58.3332V48.3332C58.3332 44.6998 52.3832 42.5498 47.7832 41.8832ZM44.9998 39.9998C48.6832 39.9998 51.6665 37.0165 51.6665 33.3332C51.6665 29.6498 48.6832 26.6665 44.9998 26.6665C44.2165 26.6665 43.4832 26.8332 42.7832 27.0665C44.2174 28.8402 44.9998 31.0522 44.9998 33.3332C44.9998 35.6142 44.2174 37.8261 42.7832 39.5998C43.4832 39.8332 44.2165 39.9998 44.9998 39.9998ZM34.9998 39.9998C38.6832 39.9998 41.6665 37.0165 41.6665 33.3332C41.6665 29.6498 38.6832 26.6665 34.9998 26.6665C31.3165 26.6665 28.3332 29.6498 28.3332 33.3332C28.3332 37.0165 31.3165 39.9998 34.9998 39.9998ZM34.9998 29.9998C36.8332 29.9998 38.3332 31.4998 38.3332 33.3332C38.3332 35.1665 36.8332 36.6665 34.9998 36.6665C33.1665 36.6665 31.6665 35.1665 31.6665 33.3332C31.6665 31.4998 33.1665 29.9998 34.9998 29.9998ZM34.9998 41.6665C30.5498 41.6665 21.6665 43.8998 21.6665 48.3332V53.3332H48.3332V48.3332C48.3332 43.8998 39.4498 41.6665 34.9998 41.6665ZM44.9998 49.9998H24.9998V48.3498C25.3332 47.1498 30.4998 44.9998 34.9998 44.9998C39.4998 44.9998 44.6665 47.1498 44.9998 48.3332V49.9998Z" fill="#FAFAFA"/>
</svg>
