<svg width="80" height="80" viewBox="0 0 80 80" fill="none" xmlns="http://www.w3.org/2000/svg">
<rect width="80" height="80" rx="40" fill="#369FFF"/>
<path d="M54.9767 48.3333C54.9767 48.1583 54.97 47.9817 54.9133 47.8067L51.58 37.8067C51.4702 37.4745 51.2583 37.1855 50.9746 36.9808C50.6909 36.7761 50.3498 36.6662 50 36.6667H49.065L50.2017 35.5367C51.1382 34.5986 51.6642 33.3272 51.6642 32.0017C51.6642 30.6761 51.1382 29.4047 50.2017 28.4667C48.8517 27.1133 46.755 26.67 45 27.285V25C45 22.2433 42.7567 20 40 20C37.2433 20 35 22.2433 35 25V27.285C33.2467 26.67 31.1483 27.1133 29.7983 28.4667C28.8616 29.4055 28.3358 30.6778 28.3365 32.004C28.3371 33.3303 28.8641 34.602 29.8017 35.54L30.935 36.6667H30C29.6502 36.6662 29.3091 36.7761 29.0254 36.9808C28.7417 37.1855 28.5298 37.4745 28.42 37.8067L25.0867 47.8067C25.0378 47.9778 25.0164 48.1555 25.0233 48.3333C25 48.3333 25 56.6667 25 56.6667C25 57.1087 25.1756 57.5326 25.4882 57.8452C25.8007 58.1577 26.2246 58.3333 26.6667 58.3333H53.3333C53.7754 58.3333 54.1993 58.1577 54.5118 57.8452C54.8244 57.5326 55 57.1087 55 56.6667C55 56.6667 55 48.3333 54.9767 48.3333ZM32.155 30.8233C32.4675 30.5109 32.8914 30.3354 33.3333 30.3354C33.7753 30.3354 34.1991 30.5109 34.5117 30.8233L38.3333 34.645V25C38.3333 24.558 38.5089 24.134 38.8215 23.8215C39.134 23.5089 39.558 23.3333 40 23.3333C40.442 23.3333 40.8659 23.5089 41.1785 23.8215C41.4911 24.134 41.6667 24.558 41.6667 25V34.645L45.4883 30.8233C45.806 30.5207 46.2279 30.3519 46.6667 30.3519C47.1054 30.3519 47.5273 30.5207 47.845 30.8233C47.9998 30.9776 48.1227 31.1608 48.2067 31.3626C48.2907 31.5644 48.334 31.7808 48.3344 31.9993C48.3347 32.2179 48.2919 32.4343 48.2085 32.6364C48.1251 32.8384 48.0027 33.022 47.8483 33.1767L40 40.9833L32.155 33.18C32.0001 33.0254 31.8772 32.8417 31.7933 32.6395C31.7095 32.4373 31.6663 32.2206 31.6663 32.0017C31.6663 31.7828 31.7095 31.566 31.7933 31.3638C31.8772 31.1617 32.0001 30.978 32.155 30.8233ZM31.2017 40H34.2883L40.0033 45.6833L45.7167 40H48.8033L51.5817 48.3333H28.425L31.2017 40ZM51.6667 55H28.3333V50H51.6667V55Z" fill="#FAFAFA"/>
</svg>
