<svg width="80" height="80" viewBox="0 0 80 80" fill="none" xmlns="http://www.w3.org/2000/svg">
<rect width="80" height="80" rx="40" fill="#FDBF50"/>
<path d="M48.75 20H31.25C29.1875 20 27.5 21.6875 27.5 23.75V56.25C27.5 58.3125 29.1875 60 31.25 60H48.75C50.8125 60 52.5 58.3125 52.5 56.25V23.75C52.5 21.6875 50.8125 20 48.75 20ZM35 21.875H45V23.125H35V21.875ZM40 57.5C39.337 57.5 38.7011 57.2366 38.2322 56.7678C37.7634 56.2989 37.5 55.663 37.5 55C37.5 54.337 37.7634 53.7011 38.2322 53.2322C38.7011 52.7634 39.337 52.5 40 52.5C40.663 52.5 41.2989 52.7634 41.7678 53.2322C42.2366 53.7011 42.5 54.337 42.5 55C42.5 55.663 42.2366 56.2989 41.7678 56.7678C41.2989 57.2366 40.663 57.5 40 57.5ZM50 50H30V25H50V50Z" fill="#FAFAFA"/>
</svg>
