<svg width="80" height="80" viewBox="0 0 80 80" fill="none" xmlns="http://www.w3.org/2000/svg">
<rect width="80" height="80" rx="40" fill="#002A62"/>
<path d="M31.6668 36.6668H35.0002C35.4422 36.6668 35.8661 36.4912 36.1787 36.1787C36.4912 35.8661 36.6668 35.4422 36.6668 35.0002C36.6668 34.5581 36.4912 34.1342 36.1787 33.8217C35.8661 33.5091 35.4422 33.3335 35.0002 33.3335H31.6668C31.2248 33.3335 30.8009 33.5091 30.4883 33.8217C30.1758 34.1342 30.0002 34.5581 30.0002 35.0002C30.0002 35.4422 30.1758 35.8661 30.4883 36.1787C30.8009 36.4912 31.2248 36.6668 31.6668 36.6668ZM55.0002 26.6668H41.6668V25.0002C41.6668 24.5581 41.4912 24.1342 41.1787 23.8217C40.8661 23.5091 40.4422 23.3335 40.0002 23.3335C39.5581 23.3335 39.1342 23.5091 38.8217 23.8217C38.5091 24.1342 38.3335 24.5581 38.3335 25.0002V26.6668H25.0002C24.5581 26.6668 24.1342 26.8424 23.8217 27.155C23.5091 27.4675 23.3335 27.8915 23.3335 28.3335V45.0002C23.3335 46.3262 23.8603 47.598 24.798 48.5357C25.7356 49.4734 27.0074 50.0002 28.3335 50.0002H35.9835L32.1502 53.8168C31.9939 53.9718 31.87 54.1561 31.7853 54.3592C31.7007 54.5623 31.6572 54.7801 31.6572 55.0002C31.6572 55.2202 31.7007 55.438 31.7853 55.6411C31.87 55.8442 31.9939 56.0286 32.1502 56.1835C32.3051 56.3397 32.4894 56.4637 32.6925 56.5483C32.8956 56.6329 33.1135 56.6765 33.3335 56.6765C33.5535 56.6765 33.7714 56.6329 33.9745 56.5483C34.1776 56.4637 34.3619 56.3397 34.5168 56.1835L38.3335 52.3502V55.0002C38.3335 55.4422 38.5091 55.8661 38.8217 56.1787C39.1342 56.4912 39.5581 56.6668 40.0002 56.6668C40.4422 56.6668 40.8661 56.4912 41.1787 56.1787C41.4912 55.8661 41.6668 55.4422 41.6668 55.0002V52.3502L45.4835 56.1835C45.6384 56.3397 45.8228 56.4637 46.0259 56.5483C46.229 56.6329 46.4468 56.6765 46.6668 56.6765C46.8868 56.6765 47.1047 56.6329 47.3078 56.5483C47.5109 56.4637 47.6952 56.3397 47.8502 56.1835C48.0064 56.0286 48.1304 55.8442 48.215 55.6411C48.2996 55.438 48.3432 55.2202 48.3432 55.0002C48.3432 54.7801 48.2996 54.5623 48.215 54.3592C48.1304 54.1561 48.0064 53.9718 47.8502 53.8168L44.0168 50.0002H51.6668C52.9929 50.0002 54.2647 49.4734 55.2024 48.5357C56.14 47.598 56.6668 46.3262 56.6668 45.0002V28.3335C56.6668 27.8915 56.4912 27.4675 56.1787 27.155C55.8661 26.8424 55.4422 26.6668 55.0002 26.6668ZM53.3335 45.0002C53.3335 45.4422 53.1579 45.8661 52.8453 46.1787C52.5328 46.4912 52.1089 46.6668 51.6668 46.6668H28.3335C27.8915 46.6668 27.4675 46.4912 27.155 46.1787C26.8424 45.8661 26.6668 45.4422 26.6668 45.0002V30.0002H53.3335V45.0002ZM31.6668 43.3335H41.6668C42.1089 43.3335 42.5328 43.1579 42.8453 42.8453C43.1579 42.5328 43.3335 42.1089 43.3335 41.6668C43.3335 41.2248 43.1579 40.8009 42.8453 40.4883C42.5328 40.1758 42.1089 40.0002 41.6668 40.0002H31.6668C31.2248 40.0002 30.8009 40.1758 30.4883 40.4883C30.1758 40.8009 30.0002 41.2248 30.0002 41.6668C30.0002 42.1089 30.1758 42.5328 30.4883 42.8453C30.8009 43.1579 31.2248 43.3335 31.6668 43.3335Z" fill="#FAFAFA"/>
</svg>
