<svg width="32" height="40" viewBox="0 0 32 40" fill="none" xmlns="http://www.w3.org/2000/svg">
<path d="M26.56 13.44C26.8409 13.7213 26.9987 14.1025 26.9987 14.5C26.9987 14.8975 26.8409 15.2787 26.56 15.56L22.56 19.56C22.2787 19.8409 21.8975 19.9987 21.5 19.9987C21.1025 19.9987 20.7213 19.8409 20.44 19.56L18.44 17.56C18.2926 17.4227 18.1744 17.2571 18.0924 17.0731C18.0105 16.8891 17.9664 16.6905 17.9628 16.489C17.9593 16.2876 17.9963 16.0876 18.0718 15.9008C18.1472 15.714 18.2595 15.5444 18.4019 15.4019C18.5444 15.2595 18.714 15.1472 18.9008 15.0718C19.0876 14.9963 19.2876 14.9593 19.489 14.9628C19.6905 14.9664 19.8891 15.0105 20.0731 15.0924C20.2571 15.1744 20.4227 15.2926 20.56 15.44L21.5 16.38L24.44 13.44C24.7212 13.1591 25.1025 13.0013 25.5 13.0013C25.8975 13.0013 26.2788 13.1591 26.56 13.44ZM26.56 26.56C26.7074 26.4227 26.8256 26.2571 26.9076 26.0731C26.9895 25.8891 27.0336 25.6905 27.0372 25.489C27.0407 25.2876 27.0037 25.0876 26.9282 24.9008C26.8528 24.714 26.7405 24.5444 26.5981 24.4019C26.4556 24.2595 26.286 24.1472 26.0992 24.0718C25.9124 23.9963 25.7124 23.9593 25.511 23.9628C25.3095 23.9664 25.1109 24.0105 24.9269 24.0924C24.7429 24.1744 24.5773 24.2926 24.44 24.44L21.5 27.38L20.56 26.44C20.4227 26.2926 20.2571 26.1744 20.0731 26.0924C19.8891 26.0105 19.6905 25.9664 19.489 25.9628C19.2876 25.9593 19.0876 25.9963 18.9008 26.0718C18.714 26.1472 18.5444 26.2595 18.4019 26.4019C18.2595 26.5444 18.1472 26.714 18.0718 26.9008C17.9963 27.0876 17.9593 27.2876 17.9628 27.489C17.9664 27.6905 18.0105 27.8891 18.0924 28.0731C18.1744 28.2571 18.2926 28.4227 18.44 28.56L20.44 30.56C20.7213 30.8409 21.1025 30.9987 21.5 30.9987C21.8975 30.9987 22.2787 30.8409 22.56 30.56L26.56 26.56ZM6 16.5C6 16.1022 6.15804 15.7206 6.43934 15.4393C6.72064 15.158 7.10218 15 7.5 15H14.5C14.8978 15 15.2794 15.158 15.5607 15.4393C15.842 15.7206 16 16.1022 16 16.5C16 16.8978 15.842 17.2794 15.5607 17.5607C15.2794 17.842 14.8978 18 14.5 18H7.5C7.10218 18 6.72064 17.842 6.43934 17.5607C6.15804 17.2794 6 16.8978 6 16.5ZM7.5 26C7.10218 26 6.72064 26.158 6.43934 26.4393C6.15804 26.7206 6 27.1022 6 27.5C6 27.8978 6.15804 28.2794 6.43934 28.5607C6.72064 28.842 7.10218 29 7.5 29H14.5C14.8978 29 15.2794 28.842 15.5607 28.5607C15.842 28.2794 16 27.8978 16 27.5C16 27.1022 15.842 26.7206 15.5607 26.4393C15.2794 26.158 14.8978 26 14.5 26H7.5ZM23.972 4C23.849 2.89998 23.3249 1.88387 22.4999 1.14594C21.6749 0.408014 20.6069 3.34412e-05 19.5 0H12.5C11.3931 3.34412e-05 10.3251 0.408014 9.50009 1.14594C8.67508 1.88387 8.15099 2.89998 8.028 4H4.5C3.30653 4 2.16193 4.47411 1.31802 5.31802C0.474106 6.16193 0 7.30653 0 8.5V35.5C0 36.6935 0.474106 37.8381 1.31802 38.682C2.16193 39.5259 3.30653 40 4.5 40H27.5C28.0909 40 28.6761 39.8836 29.2221 39.6575C29.768 39.4313 30.2641 39.0998 30.682 38.682C31.0998 38.2641 31.4313 37.768 31.6575 37.2221C31.8836 36.6761 32 36.091 32 35.5V8.5C32 7.90905 31.8836 7.32389 31.6575 6.77792C31.4313 6.23196 31.0998 5.73588 30.682 5.31802C30.2641 4.90016 29.768 4.56869 29.2221 4.34254C28.6761 4.1164 28.0909 4 27.5 4H23.972ZM12.5 9H19.5C21.06 9 22.434 8.206 23.242 7H27.5C27.8978 7 28.2794 7.15804 28.5607 7.43934C28.842 7.72064 29 8.10218 29 8.5V35.5C29 35.8978 28.842 36.2794 28.5607 36.5607C28.2794 36.842 27.8978 37 27.5 37H4.5C4.10218 37 3.72064 36.842 3.43934 36.5607C3.15804 36.2794 3 35.8978 3 35.5V8.5C3 8.10218 3.15804 7.72064 3.43934 7.43934C3.72064 7.15804 4.10218 7 4.5 7H8.758C9.566 8.206 10.94 9 12.5 9ZM12.5 3H19.5C19.8978 3 20.2794 3.15804 20.5607 3.43934C20.842 3.72064 21 4.10218 21 4.5C21 4.89782 20.842 5.27936 20.5607 5.56066C20.2794 5.84196 19.8978 6 19.5 6H12.5C12.1022 6 11.7206 5.84196 11.4393 5.56066C11.158 5.27936 11 4.89782 11 4.5C11 4.10218 11.158 3.72064 11.4393 3.43934C11.7206 3.15804 12.1022 3 12.5 3Z" fill="#FAFAFA"/>
</svg>
