<svg width="48" height="48" viewBox="0 0 48 48" fill="none" xmlns="http://www.w3.org/2000/svg">
<path d="M10 18V42H2V18H10ZM18 42C16.9391 42 15.9217 41.5786 15.1716 40.8284C14.4214 40.0783 14 39.0609 14 38V18C14 16.9 14.44 15.9 15.18 15.18L28.34 2L30.46 4.12C31 4.66 31.34 5.4 31.34 6.22L31.28 6.86L29.38 16H42C43.0609 16 44.0783 16.4214 44.8284 17.1716C45.5786 17.9217 46 18.9391 46 20V24C46 24.52 45.9 25 45.72 25.46L39.68 39.56C39.08 41 37.66 42 36 42H18ZM18 38H36.06L42 24V20H24.42L26.68 9.36L18 18.06V38Z" fill="#FAFAFA"/>
</svg>
