<svg width="36" height="36" viewBox="0 0 36 36" fill="none" xmlns="http://www.w3.org/2000/svg">
<path d="M0 32H36V36H0V32ZM6 26C8.2 26 10 24.2 10 22C10 21 9.6 20 9 19.4L11.6 14H12C13 14 14 13.6 14.6 13L20 15.8V16C20 18.2 21.8 20 24 20C26.2 20 28 18.2 28 16C28 15 27.6 14.2 27 13.4L29.6 8H30C32.2 8 34 6.2 34 4C34 1.8 32.2 0 30 0C27.8 0 26 1.8 26 4C26 5 26.4 6 27 6.6L24.4 12H24C23 12 22 12.4 21.4 13L16 10.4V10C16 7.8 14.2 6 12 6C9.8 6 8 7.8 8 10C8 11 8.4 12 9 12.6L6.4 18H6C3.8 18 2 19.8 2 22C2 24.2 3.8 26 6 26Z" fill="#FAFAFA"/>
</svg>
