<?xml version="1.0" encoding="UTF-8"?>
<!DOCTYPE svg PUBLIC "-//W3C//DTD SVG 1.1//EN" "http://www.w3.org/Graphics/SVG/1.1/DTD/svg11.dtd">
<svg xmlns="http://www.w3.org/2000/svg" version="1.1" width="1630px" height="449px" style="shape-rendering:geometricPrecision; text-rendering:geometricPrecision; image-rendering:optimizeQuality; fill-rule:evenodd; clip-rule:evenodd" xmlns:xlink="http://www.w3.org/1999/xlink">
<g><path style="opacity:0.996" fill="#322b2a" d="M 143.5,-0.5 C 149.5,-0.5 155.5,-0.5 161.5,-0.5C 172.087,3.29509 182.087,8.46176 191.5,15C 231.5,34.3333 271.5,34.3333 311.5,15C 320.557,7.13808 330.89,1.97141 342.5,-0.5C 347.833,-0.5 353.167,-0.5 358.5,-0.5C 391.159,7.69833 405.659,28.6983 402,62.5C 393.385,93.5795 372.885,107.413 340.5,104C 336.363,103.066 332.363,101.732 328.5,100C 290.104,74.4379 249.104,69.1046 205.5,84C 215.213,129.705 241.213,162.372 283.5,182C 301.068,197.037 307.234,215.87 302,238.5C 295.029,258.136 281.529,270.969 261.5,277C 231.134,298.54 212.467,327.706 205.5,364.5C 236.234,375.232 266.901,375.065 297.5,364C 308.452,358.857 319.119,353.191 329.5,347C 361.762,337.191 385.262,347.358 400,377.5C 407.578,407.162 398.078,429.329 371.5,444C 366.217,446.15 360.884,447.65 355.5,448.5C 352.167,448.5 348.833,448.5 345.5,448.5C 333.447,446.865 322.78,442.032 313.5,434C 273.974,414.499 233.974,413.499 193.5,431C 182.129,440.69 169.129,446.523 154.5,448.5C 152.5,448.5 150.5,448.5 148.5,448.5C 112.796,442.128 96.6292,420.794 100,384.5C 103.552,371.216 110.719,360.382 121.5,352C 180.668,319.843 206.834,270.009 200,202.5C 194.015,160.667 173.515,128.167 138.5,105C 101.244,88.01 90.7439,60.8433 107,23.5C 115.978,10.5978 128.145,2.59783 143.5,-0.5 Z"/></g>
<g><path style="opacity:0.993" fill="#322b2a" d="M 1292.5,33.5 C 1307.5,33.5 1322.5,33.5 1337.5,33.5C 1337.33,82.8345 1337.5,132.168 1338,181.5C 1360.62,157.095 1383.12,132.595 1405.5,108C 1424.07,106.526 1442.74,106.026 1461.5,106.5C 1461.65,107.552 1461.48,108.552 1461,109.5C 1436.71,133.627 1412.54,157.96 1388.5,182.5C 1414.12,215.455 1440.12,248.121 1466.5,280.5C 1447.51,281.666 1428.51,281.833 1409.5,281C 1392.45,258.41 1375.29,235.91 1358,213.5C 1351.33,220.167 1344.67,226.833 1338,233.5C 1337.5,249.497 1337.33,265.497 1337.5,281.5C 1322.5,281.5 1307.5,281.5 1292.5,281.5C 1292.5,198.833 1292.5,116.167 1292.5,33.5 Z"/></g>
<g><path style="opacity:0.988" fill="#322b2a" d="M 617.5,50.5 C 672.167,50.5 726.833,50.5 781.5,50.5C 781.5,64.8333 781.5,79.1667 781.5,93.5C 743.167,93.5 704.833,93.5 666.5,93.5C 666.5,110.167 666.5,126.833 666.5,143.5C 700.167,143.5 733.833,143.5 767.5,143.5C 767.5,157.167 767.5,170.833 767.5,184.5C 733.833,184.5 700.167,184.5 666.5,184.5C 666.5,202.167 666.5,219.833 666.5,237.5C 704.833,237.5 743.167,237.5 781.5,237.5C 781.5,252.167 781.5,266.833 781.5,281.5C 726.833,281.5 672.167,281.5 617.5,281.5C 617.5,204.5 617.5,127.5 617.5,50.5 Z"/></g>
<g><path style="opacity:0.995" fill="#322b2a" d="M 1183.5,102.5 C 1220.56,99.1069 1248.06,113.44 1266,145.5C 1273.92,165.761 1276.75,186.761 1274.5,208.5C 1232.83,208.167 1191.16,208.5 1149.5,209.5C 1159.23,236.683 1178.56,248.516 1207.5,245C 1226.22,242.47 1242.89,235.304 1257.5,223.5C 1258.67,237.488 1258.83,251.488 1258,265.5C 1229.96,286.127 1199.13,291.627 1165.5,282C 1117.36,261.568 1097.53,225.401 1106,173.5C 1116.9,133.192 1142.73,109.526 1183.5,102.5 Z M 1181.5,142.5 C 1200.83,139.428 1215.99,145.761 1227,161.5C 1229.12,166.18 1230.62,171.013 1231.5,176C 1204.49,176.833 1177.49,176.667 1150.5,175.5C 1155.2,159.023 1165.53,148.023 1181.5,142.5 Z"/></g>
<g><path style="opacity:0.993" fill="#322b2a" d="M 1629.5,106.5 C 1629.5,164.833 1629.5,223.167 1629.5,281.5C 1614.5,281.5 1599.5,281.5 1584.5,281.5C 1584.67,272.827 1584.5,264.16 1584,255.5C 1562.18,286.321 1533.68,294.488 1498.5,280C 1473,266.886 1457.83,246.052 1453,217.5C 1448.93,193.351 1451.6,170.018 1461,147.5C 1478.44,115.025 1505.61,100.192 1542.5,103C 1558.64,105.822 1572.47,112.989 1584,124.5C 1584.5,118.509 1584.67,112.509 1584.5,106.5C 1599.5,106.5 1614.5,106.5 1629.5,106.5 Z M 1534.5,146.5 C 1554.33,145.667 1570.83,152.667 1584,167.5C 1584.67,177.833 1584.67,188.167 1584,198.5C 1581.08,220.742 1568.92,234.909 1547.5,241C 1521.23,242.95 1505.06,231.116 1499,205.5C 1495.25,180.177 1504.41,161.344 1526.5,149C 1529.31,148.218 1531.98,147.384 1534.5,146.5 Z"/></g>
<g><path style="opacity:0.987" fill="#322b2a" d="M 1080.5,103.5 C 1088.72,102.913 1096.72,103.913 1104.5,106.5C 1105.5,123.153 1105.83,139.82 1105.5,156.5C 1100.54,155.027 1095.54,153.527 1090.5,152C 1077.54,149.103 1066.2,152.103 1056.5,161C 1049.4,168.096 1043.9,176.262 1040,185.5C 1039.5,217.498 1039.33,249.498 1039.5,281.5C 1024.5,281.5 1009.5,281.5 994.5,281.5C 994.5,223.167 994.5,164.833 994.5,106.5C 1009.5,106.5 1024.5,106.5 1039.5,106.5C 1039.33,116.506 1039.5,126.506 1040,136.5C 1047.89,124.612 1057.72,114.779 1069.5,107C 1073.25,105.691 1076.92,104.525 1080.5,103.5 Z"/></g>
<g><path style="opacity:0.995" fill="#322b2a" d="M 809.5,106.5 C 824.515,106.167 839.515,106.501 854.5,107.5C 855.026,144.164 855.859,180.83 857,217.5C 863.435,237.306 876.935,245.139 897.5,241C 909.406,237.427 916.906,229.594 920,217.5C 921.468,180.54 921.968,143.54 921.5,106.5C 936.833,106.5 952.167,106.5 967.5,106.5C 967.667,144.835 967.5,183.168 967,221.5C 961.236,255.6 941.403,276.433 907.5,284C 877.346,289.673 850.846,282.506 828,262.5C 817.959,251.415 811.959,238.415 810,223.5C 809.5,184.501 809.333,145.501 809.5,106.5 Z"/></g>
<g><path style="opacity:0.995" fill="#322b2a" d="M -0.5,228.5 C -0.5,224.5 -0.5,220.5 -0.5,216.5C 7.49015,185.038 27.8235,170.204 60.5,172C 88.0035,178.504 103.003,195.837 105.5,224C 102.064,256.604 84.0643,274.104 51.5,276.5C 21.6404,273.971 4.30706,257.971 -0.5,228.5 Z"/></g>
<g><path style="opacity:0.995" fill="#322b2a" d="M 441.5,171.5 C 464.834,169.585 483.001,178.252 496,197.5C 508.676,225.989 502.842,249.823 478.5,269C 453.414,281.51 430.58,278.343 410,259.5C 398.149,244.752 394.483,228.085 399,209.5C 406.141,188.853 420.308,176.187 441.5,171.5 Z"/></g>
<g><path style="opacity:0.966" fill="#312a29" d="M 947.5,324.5 C 951.985,324.647 954.652,326.98 955.5,331.5C 953.084,338.805 948.918,340.138 943,335.5C 940.132,329.964 941.632,326.297 947.5,324.5 Z"/></g>
<g><path style="opacity:0.924" fill="#322b2a" d="M 1439.5,326.5 C 1442.5,326.5 1445.5,326.5 1448.5,326.5C 1448.5,348.167 1448.5,369.833 1448.5,391.5C 1445.5,391.5 1442.5,391.5 1439.5,391.5C 1439.5,369.833 1439.5,348.167 1439.5,326.5 Z"/></g>
<g><path style="opacity:0.973" fill="#322b2a" d="M 708.5,326.5 C 711.5,326.5 714.5,326.5 717.5,326.5C 717.5,348.167 717.5,369.833 717.5,391.5C 714.5,391.5 711.5,391.5 708.5,391.5C 708.785,389.712 708.452,388.045 707.5,386.5C 700.068,393.098 691.735,394.265 682.5,390C 675.383,385.04 672.05,378.207 672.5,369.5C 672.947,351.107 682.281,343.273 700.5,346C 703.249,347.123 705.749,348.623 708,350.5C 708.5,342.507 708.666,334.507 708.5,326.5 Z M 691.5,353.5 C 706.562,353.741 711.728,361.074 707,375.5C 701.431,385.204 694.097,386.87 685,380.5C 678.889,369.359 681.056,360.359 691.5,353.5 Z"/></g>
<g><path style="opacity:0.963" fill="#322b2a" d="M 1267.5,326.5 C 1270.5,326.5 1273.5,326.5 1276.5,326.5C 1276.17,334.528 1276.5,342.528 1277.5,350.5C 1284.09,345.278 1291.42,344.111 1299.5,347C 1302,348.167 1303.83,350 1305,352.5C 1308.01,365.36 1308.85,378.36 1307.5,391.5C 1304.5,391.5 1301.5,391.5 1298.5,391.5C 1298.67,381.161 1298.5,370.828 1298,360.5C 1295.54,353.855 1291.04,352.022 1284.5,355C 1281.68,356.822 1279.18,358.989 1277,361.5C 1276.5,371.494 1276.33,381.494 1276.5,391.5C 1273.5,391.5 1270.5,391.5 1267.5,391.5C 1267.5,369.833 1267.5,348.167 1267.5,326.5 Z"/></g>
<g><path style="opacity:0.971" fill="#322b2a" d="M 907.5,332.5 C 909.167,332.5 910.833,332.5 912.5,332.5C 912.5,337.167 912.5,341.833 912.5,346.5C 916.5,346.5 920.5,346.5 924.5,346.5C 924.5,349.167 924.5,351.833 924.5,354.5C 920.5,354.5 916.5,354.5 912.5,354.5C 912.334,363.839 912.5,373.173 913,382.5C 913.739,383.574 914.739,384.241 916,384.5C 918.524,383.896 921.024,383.229 923.5,382.5C 926.063,389.904 923.396,393.238 915.5,392.5C 910.442,392.722 906.609,390.722 904,386.5C 903.5,375.839 903.333,365.172 903.5,354.5C 900.5,354.5 897.5,354.5 894.5,354.5C 895.907,350.56 898.407,347.226 902,344.5C 903.574,340.354 905.407,336.354 907.5,332.5 Z"/></g>
<g><path style="opacity:0.98" fill="#322b2a" d="M 1129.5,332.5 C 1131.17,332.5 1132.83,332.5 1134.5,332.5C 1134.5,337.167 1134.5,341.833 1134.5,346.5C 1138.5,346.5 1142.5,346.5 1146.5,346.5C 1146.5,349.167 1146.5,351.833 1146.5,354.5C 1142.5,354.5 1138.5,354.5 1134.5,354.5C 1134.33,363.839 1134.5,373.173 1135,382.5C 1138.38,384.683 1141.88,384.683 1145.5,382.5C 1147.91,390.078 1145.08,393.411 1137,392.5C 1131.87,393.105 1128.21,391.105 1126,386.5C 1125.5,375.839 1125.33,365.172 1125.5,354.5C 1122.5,354.5 1119.5,354.5 1116.5,354.5C 1116.34,353.127 1116.51,351.793 1117,350.5C 1119.29,349.21 1121.29,347.543 1123,345.5C 1125.2,341.109 1127.36,336.776 1129.5,332.5 Z"/></g>
<g><path style="opacity:0.975" fill="#312b2a" d="M 632.5,345.5 C 652.252,343.584 661.585,352.584 660.5,372.5C 649.162,372.333 637.828,372.5 626.5,373C 629.97,382.735 636.637,386.069 646.5,383C 650.004,381.082 653.337,378.916 656.5,376.5C 657.657,379.784 657.824,383.118 657,386.5C 646.874,393.901 636.374,394.401 625.5,388C 617.928,380.719 615.428,371.886 618,361.5C 620.626,354.046 625.46,348.712 632.5,345.5 Z M 636.5,353.5 C 644.687,352.905 649.354,356.572 650.5,364.5C 642.833,364.5 635.167,364.5 627.5,364.5C 628.404,358.979 631.404,355.313 636.5,353.5 Z"/></g>
<g><path style="opacity:0.956" fill="#302a29" d="M 803.5,345.5 C 810.031,344.988 816.364,345.822 822.5,348C 824.34,350.826 825.006,353.993 824.5,357.5C 819.86,356.186 815.193,354.853 810.5,353.5C 797.071,356.692 792.904,364.692 798,377.5C 801.072,381.786 805.239,384.119 810.5,384.5C 815.193,383.147 819.86,381.814 824.5,380.5C 825.006,384.007 824.34,387.174 822.5,390C 809.664,395.389 798.831,392.889 790,382.5C 782.004,365.303 786.504,352.969 803.5,345.5 Z"/></g>
<g><path style="opacity:0.972" fill="#322b2a" d="M 849.5,345.5 C 854.179,345.334 858.845,345.501 863.5,346C 866.249,347.123 868.749,348.623 871,350.5C 871.49,349.207 871.657,347.873 871.5,346.5C 874.5,346.5 877.5,346.5 880.5,346.5C 880.5,361.5 880.5,376.5 880.5,391.5C 877.5,391.5 874.5,391.5 871.5,391.5C 871.66,389.801 871.494,388.134 871,386.5C 861.069,394.455 851.069,394.455 841,386.5C 833.712,374.848 833.712,363.182 841,351.5C 843.736,349.248 846.569,347.248 849.5,345.5 Z M 855.5,353.5 C 870.874,355.023 875.374,363.023 869,377.5C 862.019,386.333 854.686,386.666 847,378.5C 842.185,367.442 845.019,359.108 855.5,353.5 Z"/></g>
<g><path style="opacity:0.97" fill="#322b2a" d="M 986.5,345.5 C 1001.34,343 1011.51,348.667 1017,362.5C 1019.6,376.461 1014.44,386.294 1001.5,392C 978.149,394.315 967.982,383.815 971,360.5C 974.106,353.225 979.272,348.225 986.5,345.5 Z M 990.5,353.5 C 1001.56,352.857 1007.56,358.024 1008.5,369C 1005.49,383.172 997.49,387.172 984.5,381C 979.798,376.078 978.298,370.245 980,363.5C 982.106,358.557 985.606,355.224 990.5,353.5 Z"/></g>
<g><path style="opacity:0.941" fill="#322b2a" d="M 1049.5,345.5 C 1061.5,343.239 1069,347.906 1072,359.5C 1072.5,370.161 1072.67,380.828 1072.5,391.5C 1069.5,391.5 1066.5,391.5 1063.5,391.5C 1063.67,381.494 1063.5,371.494 1063,361.5C 1060.16,353.55 1054.99,351.716 1047.5,356C 1045,357.167 1043.17,359 1042,361.5C 1041.5,371.494 1041.33,381.494 1041.5,391.5C 1038.5,391.5 1035.5,391.5 1032.5,391.5C 1032.5,376.5 1032.5,361.5 1032.5,346.5C 1035.5,346.5 1038.5,346.5 1041.5,346.5C 1041.34,347.873 1041.51,349.207 1042,350.5C 1044.48,348.686 1046.98,347.019 1049.5,345.5 Z"/></g>
<g><path style="opacity:0.97" fill="#312a29" d="M 1175.5,345.5 C 1195.48,343.478 1204.48,352.478 1202.5,372.5C 1191.48,372.168 1180.48,372.501 1169.5,373.5C 1173.26,382.879 1179.92,386.046 1189.5,383C 1192.97,381.03 1196.3,378.864 1199.5,376.5C 1200.66,379.784 1200.82,383.118 1200,386.5C 1190.4,393.508 1180.23,394.341 1169.5,389C 1158,378.132 1156.5,365.965 1165,352.5C 1168.15,349.488 1171.65,347.155 1175.5,345.5 Z M 1178.5,353.5 C 1186.66,353.013 1191.66,356.68 1193.5,364.5C 1185.49,364.666 1177.49,364.5 1169.5,364C 1171.01,359.094 1174.01,355.594 1178.5,353.5 Z"/></g>
<g><path style="opacity:0.963" fill="#322b2a" d="M 1231.5,345.5 C 1238.45,344.878 1245.11,345.878 1251.5,348.5C 1252.48,351.428 1252.82,354.428 1252.5,357.5C 1248.28,355.894 1243.95,354.561 1239.5,353.5C 1229.9,354.263 1224.9,359.43 1224.5,369C 1224.84,378.343 1229.68,383.51 1239,384.5C 1243.54,383.265 1248.04,381.932 1252.5,380.5C 1253.74,386.249 1251.74,390.082 1246.5,392C 1223.15,394.315 1212.98,383.815 1216,360.5C 1219.08,353.251 1224.25,348.251 1231.5,345.5 Z"/></g>
<g><path style="opacity:0.968" fill="#322b2a" d="M 1340.5,345.5 C 1345.6,345.175 1350.6,345.675 1355.5,347C 1358,348.167 1359.83,350 1361,352.5C 1364.46,365.314 1365.29,378.314 1363.5,391.5C 1360.5,391.5 1357.5,391.5 1354.5,391.5C 1354.67,380.828 1354.5,370.161 1354,359.5C 1349.63,352.377 1344.13,351.544 1337.5,357C 1336,358.5 1334.5,360 1333,361.5C 1332.5,371.494 1332.33,381.494 1332.5,391.5C 1329.5,391.5 1326.5,391.5 1323.5,391.5C 1323.5,376.5 1323.5,361.5 1323.5,346.5C 1326.5,346.5 1329.5,346.5 1332.5,346.5C 1332.24,347.978 1332.57,349.311 1333.5,350.5C 1336.08,349.057 1338.41,347.39 1340.5,345.5 Z"/></g>
<g><path style="opacity:0.96" fill="#312a29" d="M 1393.5,345.5 C 1416.28,343.45 1426.45,353.783 1424,376.5C 1416.5,391.986 1404.67,396.486 1388.5,390C 1377.6,382.009 1374.44,371.509 1379,358.5C 1382.16,352.164 1387,347.831 1393.5,345.5 Z M 1397.5,353.5 C 1413.31,355.11 1418.48,363.443 1413,378.5C 1406.44,384.936 1399.27,385.769 1391.5,381C 1384.89,373.03 1384.89,365.03 1391.5,357C 1393.43,355.541 1395.43,354.375 1397.5,353.5 Z"/></g>
<g><path style="opacity:0.97" fill="#322b2a" d="M 1479.5,345.5 C 1502.83,343.665 1513,354.332 1510,377.5C 1501.65,392.95 1489.48,396.783 1473.5,389C 1463.79,381.195 1460.96,371.362 1465,359.5C 1468.41,353.257 1473.24,348.59 1479.5,345.5 Z M 1484.5,353.5 C 1499.42,354.991 1504.59,362.991 1500,377.5C 1492.91,385.565 1485.08,386.399 1476.5,380C 1469.82,368.202 1472.49,359.369 1484.5,353.5 Z"/></g>
<g><path style="opacity:0.966" fill="#312b29" d="M 1537.5,345.5 C 1542.18,345.334 1546.85,345.501 1551.5,346C 1553.66,346.914 1555.66,348.081 1557.5,349.5C 1558.39,348.675 1558.72,347.675 1558.5,346.5C 1561.5,346.5 1564.5,346.5 1567.5,346.5C 1567.67,363.837 1567.5,381.17 1567,398.5C 1562,410.755 1552.84,415.922 1539.5,414C 1535.2,413.102 1531.37,411.269 1528,408.5C 1526.71,405.649 1526.21,402.649 1526.5,399.5C 1527.87,399.343 1529.21,399.51 1530.5,400C 1537.5,405.963 1545.16,406.963 1553.5,403C 1558.15,398.464 1559.65,392.964 1558,386.5C 1556.04,389.135 1553.54,390.969 1550.5,392C 1533.2,394.36 1524.2,386.86 1523.5,369.5C 1523.06,358.354 1527.73,350.354 1537.5,345.5 Z M 1542.5,353.5 C 1552.53,352.818 1558.2,357.318 1559.5,367C 1559.39,376.603 1554.72,382.436 1545.5,384.5C 1536.92,383.518 1532.59,378.685 1532.5,370C 1532.69,362.441 1536.02,356.941 1542.5,353.5 Z"/></g>
<g><path style="opacity:0.978" fill="#322b2a" d="M 733.5,346.5 C 736.5,346.5 739.5,346.5 742.5,346.5C 742.334,356.506 742.5,366.506 743,376.5C 746.612,383.926 752.112,385.759 759.5,382C 761.049,380.786 762.215,379.286 763,377.5C 763.5,367.172 763.666,356.839 763.5,346.5C 766.833,346.5 770.167,346.5 773.5,346.5C 773.666,354.84 773.5,363.173 773,371.5C 771.956,387.54 763.456,394.374 747.5,392C 741.499,390.664 737.332,387.164 735,381.5C 733.588,369.896 733.088,358.229 733.5,346.5 Z"/></g>
<g><path style="opacity:0.986" fill="#322b29" d="M 937.5,346.5 C 943.167,346.5 948.833,346.5 954.5,346.5C 954.5,361.5 954.5,376.5 954.5,391.5C 951.5,391.5 948.5,391.5 945.5,391.5C 945.5,379.167 945.5,366.833 945.5,354.5C 942.833,354.5 940.167,354.5 937.5,354.5C 937.5,351.833 937.5,349.167 937.5,346.5 Z"/></g>
<g><path style="opacity:0.968" fill="#312b29" d="M 1579.5,346.5 C 1583.23,346.177 1586.89,346.511 1590.5,347.5C 1595,357.167 1599.5,366.833 1604,376.5C 1608.82,366.864 1613.65,357.198 1618.5,347.5C 1621.83,346.167 1625.17,346.167 1628.5,347.5C 1618.51,369.655 1607.84,391.489 1596.5,413C 1593.12,413.824 1589.78,413.657 1586.5,412.5C 1590.52,404.464 1594.52,396.464 1598.5,388.5C 1592.16,374.483 1585.82,360.483 1579.5,346.5 Z"/></g>
</svg>
