<svg width="80" height="80" viewBox="0 0 80 80" fill="none" xmlns="http://www.w3.org/2000/svg">
<rect width="80" height="80" rx="12" fill="#0A1F33"/>
<path d="M46.2502 23.75V21.25C46.2502 20.9185 46.3819 20.6005 46.6164 20.3661C46.8508 20.1317 47.1687 20 47.5002 20C47.8318 20 48.1497 20.1317 48.3841 20.3661C48.6185 20.6005 48.7502 20.9185 48.7502 21.25V23.75C48.7502 24.0815 48.6185 24.3995 48.3841 24.6339C48.1497 24.8683 47.8318 25 47.5002 25C47.1687 25 46.8508 24.8683 46.6164 24.6339C46.3819 24.3995 46.2502 24.0815 46.2502 23.75ZM51.8487 26.4062C51.9888 26.4919 52.1444 26.549 52.3067 26.5745C52.4689 26.5999 52.6346 26.5931 52.7942 26.5546C52.9538 26.516 53.1042 26.4463 53.2369 26.3495C53.3696 26.2528 53.4819 26.1308 53.5674 25.9906L54.8174 23.9422C54.9044 23.802 54.9628 23.646 54.9892 23.4832C55.0156 23.3203 55.0095 23.1539 54.9713 22.9934C54.933 22.8329 54.8634 22.6816 54.7664 22.5481C54.6694 22.4147 54.547 22.3018 54.4061 22.2159C54.2653 22.13 54.1088 22.0728 53.9458 22.0477C53.7827 22.0226 53.6163 22.0299 53.4561 22.0694C53.2959 22.1089 53.1452 22.1797 53.0125 22.2778C52.8798 22.3758 52.7678 22.4991 52.6831 22.6406L51.4331 24.6875C51.3474 24.8275 51.2901 24.9831 51.2646 25.1453C51.239 25.3074 51.2456 25.473 51.2841 25.6326C51.3225 25.7922 51.392 25.9427 51.4886 26.0754C51.5853 26.2082 51.7071 26.3206 51.8471 26.4062H51.8487ZM59.2612 28.3734C59.1595 28.0582 58.9368 27.7962 58.6421 27.6451C58.3473 27.4939 58.0047 27.4659 57.6893 27.5672L55.3456 28.325C55.0614 28.4158 54.8191 28.6053 54.6625 28.8592C54.5058 29.1131 54.4451 29.4146 54.4913 29.7093C54.5375 30.004 54.6876 30.2725 54.9145 30.4662C55.1414 30.6599 55.43 30.7661 55.7284 30.7656C55.8589 30.7653 55.9885 30.7447 56.1127 30.7047L58.4565 29.9469C58.6132 29.8962 58.7583 29.8151 58.8836 29.7082C59.0088 29.6013 59.1117 29.4707 59.1864 29.3239C59.261 29.1772 59.3059 29.0171 59.3184 28.8529C59.331 28.6887 59.311 28.5236 59.2596 28.3672L59.2612 28.3734ZM54.5737 34.6141C55.9556 36.9914 56.5118 39.7593 56.1557 42.486C55.7995 45.2126 54.5511 47.7448 52.6049 49.6875C51.9298 52.0469 50.575 54.1554 48.7096 55.7501C46.8441 57.3448 44.5506 58.355 42.1148 58.6549C39.6791 58.9548 37.2089 58.5311 35.0124 57.4366C32.8158 56.3421 30.9901 54.6252 29.7627 52.5L24.294 43.0266C23.9601 42.4474 23.7743 41.7948 23.753 41.1266C23.7318 40.4584 23.8758 39.7953 24.1722 39.1961C24.4686 38.5969 24.9084 38.0801 25.4524 37.6916C25.9964 37.303 26.6279 37.0548 27.2909 36.9688L26.6659 35.8844C26.3371 35.3149 26.1516 34.6741 26.1251 34.017C26.0986 33.36 26.232 32.7063 26.5139 32.1122C26.7957 31.5181 27.2175 31.0013 27.7432 30.6062C28.2688 30.211 28.8825 29.9494 29.5315 29.8438C29.2059 28.9478 29.2058 27.9658 29.5311 27.0697C29.8565 26.1737 30.4866 25.4205 31.3112 24.9422C32.0672 24.5059 32.9437 24.3246 33.8108 24.4254C34.6778 24.5261 35.4894 24.9035 36.1252 25.5016C36.5151 24.9388 37.0408 24.4837 37.6536 24.1785C38.2663 23.8734 38.9463 23.728 39.6303 23.7559C40.3143 23.7838 40.9801 23.9841 41.566 24.3382C42.1519 24.6922 42.6388 25.1886 42.9815 25.7812L44.8565 29.0297C45.2625 28.4984 45.7934 28.0756 46.402 27.7987C47.0106 27.5218 47.6781 27.3995 48.3453 27.4424C49.0126 27.4854 49.6589 27.6924 50.227 28.045C50.795 28.3977 51.2673 28.8851 51.6018 29.4641L54.5737 34.6141ZM50.2487 48.8453C50.5924 47.5761 50.681 46.2512 50.5094 44.9475C50.3377 43.6438 49.9092 42.387 49.2487 41.25L46.2799 36.1078C46.0802 35.7574 45.7526 35.4978 45.3658 35.3833C44.979 35.2689 44.563 35.3084 44.2047 35.4937C43.8464 35.679 43.5737 35.9957 43.4435 36.3775C43.3134 36.7593 43.336 37.1766 43.5065 37.5422L45.2909 40.625C45.3729 40.7672 45.4262 40.9242 45.4476 41.087C45.469 41.2497 45.4582 41.4151 45.4157 41.5737C45.3731 41.7323 45.2998 41.881 45.1999 42.0112C45.0999 42.1415 44.9752 42.2507 44.8331 42.3328C44.6909 42.4149 44.5339 42.4682 44.3711 42.4896C44.2083 42.511 44.0429 42.5001 43.8843 42.4576C43.7257 42.4151 43.5771 42.3418 43.4468 42.2418C43.3166 42.1418 43.2073 42.0172 43.1252 41.875L37.6565 32.4266C37.4419 32.0868 37.1048 31.8428 36.715 31.7452C36.3252 31.6476 35.9128 31.7039 35.5634 31.9024C35.2141 32.1009 34.9546 32.4263 34.839 32.8112C34.7233 33.196 34.7604 33.6105 34.9424 33.9688L38.7893 40.625C38.8766 40.7673 38.9345 40.9256 38.9595 41.0907C38.9846 41.2557 38.9764 41.4241 38.9354 41.5859C38.8943 41.7477 38.8213 41.8996 38.7206 42.0327C38.6199 42.1658 38.4935 42.2774 38.349 42.3609C38.2044 42.4444 38.0446 42.4981 37.879 42.5188C37.7133 42.5396 37.5452 42.5269 37.3846 42.4816C37.2239 42.4363 37.074 42.3593 36.9435 42.2551C36.8131 42.1509 36.7049 42.0217 36.6252 41.875L31.5362 33.0719C31.4343 32.8927 31.2981 32.7355 31.1352 32.6093C30.9723 32.483 30.7861 32.3902 30.5873 32.3362C30.3884 32.2822 30.1808 32.2681 29.9765 32.2947C29.7721 32.3212 29.5751 32.388 29.3966 32.491C29.2181 32.594 29.0618 32.7313 28.9367 32.895C28.8115 33.0587 28.7199 33.2456 28.6673 33.4448C28.6146 33.644 28.6019 33.8517 28.6298 34.0558C28.6577 34.26 28.7257 34.4566 28.8299 34.6344L31.3299 38.9656L34.4549 44.3781C34.537 44.5203 34.5903 44.6773 34.6117 44.8401C34.6331 45.0029 34.6222 45.1683 34.5797 45.3268C34.5372 45.4854 34.4639 45.6341 34.3639 45.7643C34.264 45.8946 34.1393 46.0039 33.9971 46.0859C33.8549 46.168 33.6979 46.2213 33.5352 46.2427C33.3724 46.2641 33.207 46.2532 33.0484 46.2107C32.8898 46.1682 32.7411 46.0949 32.6109 45.9949C32.4807 45.895 32.3714 45.7703 32.2893 45.6281L29.1643 40.2156C28.9556 39.8597 28.6146 39.6007 28.2157 39.4953C27.8168 39.3898 27.3924 39.4464 27.0351 39.6527C26.6778 39.859 26.4166 40.1983 26.3084 40.5965C26.2003 40.9947 26.2541 41.4194 26.4581 41.7781L31.9268 51.2516C32.9157 52.9647 34.3904 54.346 36.1644 55.2209C37.9384 56.0958 39.932 56.4249 41.893 56.1667C43.8541 55.9085 45.6946 55.0744 47.1816 53.7701C48.6686 52.4658 49.7354 50.7498 50.2471 48.8391L50.2487 48.8453Z" fill="#FAFAFA"/>
</svg>
