<svg width="80" height="80" viewBox="0 0 80 80" fill="none" xmlns="http://www.w3.org/2000/svg">
  <rect width="80" height="80" rx="12" fill="#0A1F33" />
  <path d="M41.7834 37.3499C42.7958 35.9354 43.3401 34.2394 43.3401 32.4999C43.3401 30.7604 42.7958 29.0645 41.7834 27.6499C42.7309 27.0032 43.8529 26.6602 45 26.6666C46.5471 26.6666 48.0309 27.2812 49.1248 28.3751C50.2188 29.4691 50.8334 30.9528 50.8334 32.4999C50.8334 34.047 50.2188 35.5308 49.1248 36.6247C48.0309 37.7187 46.5471 38.3333 45 38.3333C43.8529 38.3396 42.7309 37.9967 41.7834 37.3499ZM29.1667 32.4999C29.1667 31.3462 29.5088 30.2184 30.1498 29.2591C30.7908 28.2998 31.7018 27.5521 32.7677 27.1106C33.8336 26.6691 35.0065 26.5536 36.1381 26.7787C37.2696 27.0038 38.309 27.5593 39.1248 28.3751C39.9406 29.1909 40.4962 30.2303 40.7213 31.3619C40.9464 32.4935 40.8308 33.6663 40.3893 34.7322C39.9478 35.7981 39.2002 36.7092 38.2409 37.3502C37.2816 37.9911 36.1538 38.3333 35 38.3333C33.4529 38.3333 31.9692 37.7187 30.8753 36.6247C29.7813 35.5308 29.1667 34.047 29.1667 32.4999ZM32.5 32.4999C32.5 32.9944 32.6467 33.4777 32.9214 33.8888C33.1961 34.3 33.5865 34.6204 34.0433 34.8096C34.5001 34.9988 35.0028 35.0484 35.4878 34.9519C35.9727 34.8554 36.4182 34.6173 36.7678 34.2677C37.1174 33.9181 37.3555 33.4726 37.452 32.9877C37.5485 32.5027 37.499 32 37.3097 31.5432C37.1205 31.0864 36.8001 30.696 36.389 30.4213C35.9778 30.1465 35.4945 29.9999 35 29.9999C34.337 29.9999 33.7011 30.2633 33.2323 30.7322C32.7634 31.201 32.5 31.8369 32.5 32.4999ZM46.6667 48.3333V51.6666H23.3334V48.3333C23.3334 48.3333 23.3334 41.6666 35 41.6666C46.6667 41.6666 46.6667 48.3333 46.6667 48.3333ZM43.3334 48.3333C43.1 47.0333 41.1167 44.9999 35 44.9999C28.8834 44.9999 26.7834 47.1833 26.6667 48.3333M46.5834 41.6666C47.6049 42.4611 48.4401 43.4697 49.0303 44.6214C49.6206 45.7731 49.9516 47.04 50 48.3333V51.6666H56.6667V48.3333C56.6667 48.3333 56.6667 42.2833 46.5667 41.6666H46.5834Z" fill="#FAFAFA" />
</svg>