<svg width="80" height="80" viewBox="0 0 80 80" fill="none" xmlns="http://www.w3.org/2000/svg">
<rect width="80" height="80" rx="12" fill="#0A1F33"/>
<path d="M55 27.5C55 26.837 54.7366 26.2011 54.2678 25.7322C53.7989 25.2634 53.163 25 52.5 25H47.5V22.5H45V25H35V22.5H32.5V25H27.5C26.837 25 26.2011 25.2634 25.7322 25.7322C25.2634 26.2011 25 26.837 25 27.5V52.5C25 53.163 25.2634 53.7989 25.7322 54.2678C26.2011 54.7366 26.837 55 27.5 55H32.5V52.5H27.5V27.5H32.5V30H35V27.5H45V30H47.5V27.5H52.5V35H55V27.5Z" fill="#FAFAFA"/>
<path d="M46.25 38.75L49.4362 44.9225L56.25 45.9113L51.25 50.7162L52.5 57.5L46.25 54.2975L40 57.5L41.25 50.7162L36.25 45.9113L43.25 44.9225L46.25 38.75Z" fill="#FAFAFA"/>
</svg>
