<svg width="80" height="80" viewBox="0 0 80 80" fill="none" xmlns="http://www.w3.org/2000/svg">
<rect width="80" height="80" rx="12" fill="#0A1F33"/>
<path d="M51.6665 34.9998C50.0832 34.9998 48.7082 34.5276 47.5415 33.5832C46.3748 32.6387 45.5971 31.4443 45.2082 29.9998H34.7498C34.4443 31.1665 33.8682 32.1737 33.0215 33.0215C32.1748 33.8693 31.1676 34.4454 29.9998 34.7498V45.2082C31.4443 45.5971 32.6387 46.3748 33.5832 47.5415C34.5276 48.7082 34.9998 50.0832 34.9998 51.6665C34.9998 53.4998 34.3471 55.0693 33.0415 56.3748C31.7359 57.6804 30.1665 58.3332 28.3332 58.3332C26.4998 58.3332 24.9304 57.6804 23.6248 56.3748C22.3193 55.0693 21.6665 53.4998 21.6665 51.6665C21.6665 50.0832 22.1387 48.7082 23.0832 47.5415C24.0276 46.3748 25.2221 45.5971 26.6665 45.2082V34.7498C25.2221 34.3609 24.0276 33.5832 23.0832 32.4165C22.1387 31.2498 21.6665 29.8887 21.6665 28.3332C21.6665 26.4998 22.3193 24.9304 23.6248 23.6248C24.9304 22.3193 26.4998 21.6665 28.3332 21.6665C29.8887 21.6665 31.2498 22.1387 32.4165 23.0832C33.5832 24.0276 34.3609 25.2221 34.7498 26.6665H45.2082C45.5971 25.2221 46.3748 24.0276 47.5415 23.0832C48.7082 22.1387 50.0832 21.6665 51.6665 21.6665C53.4998 21.6665 55.0693 22.3193 56.3748 23.6248C57.6804 24.9304 58.3332 26.4998 58.3332 28.3332C58.3332 30.1665 57.6804 31.7359 56.3748 33.0415C55.0693 34.3471 53.4998 34.9998 51.6665 34.9998ZM28.3332 54.9998C29.2498 54.9998 30.0348 54.6665 30.6882 53.9998C31.3415 53.3332 31.6676 52.5554 31.6665 51.6665C31.6665 50.7498 31.3404 49.9654 30.6882 49.3132C30.0359 48.6609 29.2509 48.3343 28.3332 48.3332C27.4443 48.3332 26.6665 48.6598 25.9998 49.3132C25.3332 49.9665 24.9998 50.7509 24.9998 51.6665C24.9998 52.5554 25.3332 53.3332 25.9998 53.9998C26.6665 54.6665 27.4443 54.9998 28.3332 54.9998ZM28.3332 31.6665C29.2498 31.6665 30.0348 31.3404 30.6882 30.6882C31.3415 30.0359 31.6676 29.2509 31.6665 28.3332C31.6665 27.4165 31.3404 26.6321 30.6882 25.9798C30.0359 25.3276 29.2509 25.0009 28.3332 24.9998C27.4443 24.9998 26.6665 25.3265 25.9998 25.9798C25.3332 26.6332 24.9998 27.4176 24.9998 28.3332C24.9998 29.2498 25.3332 30.0348 25.9998 30.6882C26.6665 31.3415 27.4443 31.6676 28.3332 31.6665ZM51.6665 58.3332C49.8332 58.3332 48.2637 57.6804 46.9582 56.3748C45.6526 55.0693 44.9998 53.4998 44.9998 51.6665C44.9998 49.8332 45.6526 48.2637 46.9582 46.9582C48.2637 45.6526 49.8332 44.9998 51.6665 44.9998C53.4998 44.9998 55.0693 45.6526 56.3748 46.9582C57.6804 48.2637 58.3332 49.8332 58.3332 51.6665C58.3332 53.4998 57.6804 55.0693 56.3748 56.3748C55.0693 57.6804 53.4998 58.3332 51.6665 58.3332ZM51.6665 54.9998C52.5832 54.9998 53.3682 54.6665 54.0215 53.9998C54.6748 53.3332 55.0009 52.5554 54.9998 51.6665C54.9998 50.7498 54.6737 49.9654 54.0215 49.3132C53.3693 48.6609 52.5843 48.3343 51.6665 48.3332C50.7498 48.3332 49.9654 48.6598 49.3132 49.3132C48.6609 49.9665 48.3343 50.7509 48.3332 51.6665C48.3332 52.5554 48.6598 53.3332 49.3132 53.9998C49.9665 54.6665 50.7509 54.9998 51.6665 54.9998ZM51.6665 31.6665C52.5832 31.6665 53.3682 31.3404 54.0215 30.6882C54.6748 30.0359 55.0009 29.2509 54.9998 28.3332C54.9998 27.4165 54.6737 26.6321 54.0215 25.9798C53.3693 25.3276 52.5843 25.0009 51.6665 24.9998C50.7498 24.9998 49.9654 25.3265 49.3132 25.9798C48.6609 26.6332 48.3343 27.4176 48.3332 28.3332C48.3332 29.2498 48.6598 30.0348 49.3132 30.6882C49.9665 31.3415 50.7509 31.6676 51.6665 31.6665ZM28.3332 54.9998C27.4443 54.9998 26.6665 54.6665 25.9998 53.9998C25.3332 53.3332 24.9998 52.5554 24.9998 51.6665C24.9998 50.7509 25.3332 49.9665 25.9998 49.3132C26.6665 48.6598 27.4443 48.3332 28.3332 48.3332C29.2509 48.3343 30.0359 48.6609 30.6882 49.3132C31.3404 49.9654 31.6665 50.7498 31.6665 51.6665C31.6676 52.5554 31.3415 53.3332 30.6882 53.9998C30.0348 54.6665 29.2498 54.9998 28.3332 54.9998ZM28.3332 31.6665C27.4443 31.6676 26.6665 31.3415 25.9998 30.6882C25.3332 30.0348 24.9998 29.2498 24.9998 28.3332C24.9998 27.4176 25.3332 26.6332 25.9998 25.9798C26.6665 25.3265 27.4443 24.9998 28.3332 24.9998C29.2509 25.0009 30.0359 25.3276 30.6882 25.9798C31.3404 26.6321 31.6665 27.4165 31.6665 28.3332C31.6676 29.2509 31.3415 30.0359 30.6882 30.6882C30.0348 31.3404 29.2498 31.6665 28.3332 31.6665ZM51.6665 54.9998C50.7509 54.9998 49.9665 54.6665 49.3132 53.9998C48.6598 53.3332 48.3332 52.5554 48.3332 51.6665C48.3343 50.7509 48.6609 49.9665 49.3132 49.3132C49.9654 48.6598 50.7498 48.3332 51.6665 48.3332C52.5843 48.3343 53.3693 48.6609 54.0215 49.3132C54.6737 49.9654 54.9998 50.7498 54.9998 51.6665C55.0009 52.5554 54.6748 53.3332 54.0215 53.9998C53.3682 54.6665 52.5832 54.9998 51.6665 54.9998ZM51.6665 31.6665C50.7509 31.6676 49.9665 31.3415 49.3132 30.6882C48.6598 30.0348 48.3332 29.2498 48.3332 28.3332C48.3343 27.4176 48.6609 26.6332 49.3132 25.9798C49.9654 25.3265 50.7498 24.9998 51.6665 24.9998C52.5843 25.0009 53.3693 25.3276 54.0215 25.9798C54.6737 26.6321 54.9998 27.4165 54.9998 28.3332C55.0009 29.2509 54.6748 30.0359 54.0215 30.6882C53.3682 31.3404 52.5832 31.6665 51.6665 31.6665Z" fill="#FAFAFA"/>
</svg>
