<svg width="112" height="112" viewBox="0 0 112 112" fill="none" xmlns="http://www.w3.org/2000/svg">
<rect width="112" height="112" rx="56" fill="#002A62"/>
<path d="M56 34.6668C53.5246 34.6668 51.1507 35.6502 49.4003 37.4005C47.65 39.1508 46.6667 41.5248 46.6667 44.0002C46.6667 46.4755 47.65 48.8495 49.4003 50.5998C51.1507 52.3502 53.5246 53.3335 56 53.3335C58.4754 53.3335 60.8493 52.3502 62.5997 50.5998C64.35 48.8495 65.3333 46.4755 65.3333 44.0002C65.3333 41.5248 64.35 39.1508 62.5997 37.4005C60.8493 35.6502 58.4754 34.6668 56 34.6668ZM41.3333 44.0002C41.3333 40.1103 42.8786 36.3798 45.6291 33.6293C48.3796 30.8787 52.1102 29.3335 56 29.3335C59.8898 29.3335 63.6204 30.8787 66.3709 33.6293C69.1214 36.3798 70.6667 40.1103 70.6667 44.0002C70.6667 47.89 69.1214 51.6205 66.3709 54.3711C63.6204 57.1216 59.8898 58.6668 56 58.6668C52.1102 58.6668 48.3796 57.1216 45.6291 54.3711C42.8786 51.6205 41.3333 47.89 41.3333 44.0002ZM32 74.6668C32 71.1306 33.4048 67.7392 35.9052 65.2387C38.4057 62.7383 41.7971 61.3335 45.3333 61.3335H66.6667C70.2029 61.3335 73.5943 62.7383 76.0948 65.2387C78.5952 67.7392 80 71.1306 80 74.6668V82.6668H32V74.6668ZM45.3333 66.6668C43.2116 66.6668 41.1768 67.5097 39.6765 69.01C38.1762 70.5103 37.3333 72.5451 37.3333 74.6668V77.3335H52.3013L48.744 66.6668H45.3333ZM54.3653 66.6668L56 71.5682L57.6347 66.6668H54.3653ZM63.256 66.6668L59.6987 77.3335H74.6667V74.6668C74.6667 72.5451 73.8238 70.5103 72.3235 69.01C70.8232 67.5097 68.7884 66.6668 66.6667 66.6668H63.256Z" fill="#FAFAFA"/>
</svg>
