<svg width="60" height="60" viewBox="0 0 60 60" fill="none" xmlns="http://www.w3.org/2000/svg">
<path d="M40.667 19.3335H19.3337C17.867 19.3335 16.6803 20.5335 16.6803 22.0002L16.667 38.0002C16.667 39.4668 17.867 40.6668 19.3337 40.6668H40.667C42.1337 40.6668 43.3337 39.4668 43.3337 38.0002V22.0002C43.3337 20.5335 42.1337 19.3335 40.667 19.3335ZM40.1337 25.0002L30.707 30.8935C30.2803 31.1602 29.7203 31.1602 29.2937 30.8935L19.867 25.0002C19.7333 24.9251 19.6162 24.8237 19.5228 24.7021C19.4295 24.5805 19.3617 24.4412 19.3238 24.2927C19.2858 24.1441 19.2783 23.9894 19.3019 23.8379C19.3254 23.6864 19.3794 23.5412 19.4607 23.4112C19.542 23.2812 19.6488 23.169 19.7746 23.0815C19.9005 22.9939 20.0428 22.9328 20.193 22.9019C20.3432 22.8709 20.498 22.8708 20.6483 22.9014C20.7985 22.9321 20.9409 22.9929 21.067 23.0802L30.0003 28.6668L38.9337 23.0802C39.0597 22.9929 39.2022 22.9321 39.3524 22.9014C39.5026 22.8708 39.6575 22.8709 39.8077 22.9019C39.9578 22.9328 40.1002 22.9939 40.226 23.0815C40.3519 23.169 40.4587 23.2812 40.5399 23.4112C40.6212 23.5412 40.6752 23.6864 40.6988 23.8379C40.7223 23.9894 40.7149 24.1441 40.6769 24.2927C40.6389 24.4412 40.5712 24.5805 40.4778 24.7021C40.3844 24.8237 40.2674 24.9251 40.1337 25.0002Z" fill="#0A1F33"/>
</svg>
