<svg width="80" height="80" viewBox="0 0 80 80" fill="none" xmlns="http://www.w3.org/2000/svg">
<rect width="80" height="80" rx="12" fill="#0A1F33"/>
<g clip-path="url(#clip0_4277_1309)">
<path d="M53.3333 49.9998C55.1667 49.9998 56.6667 48.4998 56.6667 46.6665V29.9998C56.6667 28.1665 55.1667 26.6665 53.3333 26.6665H26.6667C24.8333 26.6665 23.3333 28.1665 23.3333 29.9998V46.6665C23.3333 48.4998 24.8333 49.9998 26.6667 49.9998H21.6667C20.75 49.9998 20 50.7498 20 51.6665C20 52.5832 20.75 53.3332 21.6667 53.3332H58.3333C59.25 53.3332 60 52.5832 60 51.6665C60 50.7498 59.25 49.9998 58.3333 49.9998H53.3333ZM28.3333 29.9998H51.6667C52.5833 29.9998 53.3333 30.7498 53.3333 31.6665V44.9998C53.3333 45.9165 52.5833 46.6665 51.6667 46.6665H28.3333C27.4167 46.6665 26.6667 45.9165 26.6667 44.9998V31.6665C26.6667 30.7498 27.4167 29.9998 28.3333 29.9998Z" fill="#FAFAFA"/>
</g>
<defs>
<clipPath id="clip0_4277_1309">
<rect width="40" height="40" fill="white" transform="translate(20 20)"/>
</clipPath>
</defs>
</svg>
