<svg width="60" height="60" viewBox="0 0 60 60" fill="none" xmlns="http://www.w3.org/2000/svg">
<path d="M30.0003 16.6665C24.8403 16.6665 20.667 20.8398 20.667 25.9998C20.667 32.9998 30.0003 43.3332 30.0003 43.3332C30.0003 43.3332 39.3337 32.9998 39.3337 25.9998C39.3337 20.8398 35.1603 16.6665 30.0003 16.6665ZM30.0003 29.3332C29.1163 29.3332 28.2684 28.982 27.6433 28.3569C27.0182 27.7317 26.667 26.8839 26.667 25.9998C26.667 25.1158 27.0182 24.2679 27.6433 23.6428C28.2684 23.0177 29.1163 22.6665 30.0003 22.6665C30.8844 22.6665 31.7322 23.0177 32.3573 23.6428C32.9825 24.2679 33.3337 25.1158 33.3337 25.9998C33.3337 26.8839 32.9825 27.7317 32.3573 28.3569C31.7322 28.982 30.8844 29.3332 30.0003 29.3332Z" fill="#0A1F33"/>
</svg>
