<svg width="160" height="180" viewBox="0 0 160 180" fill="none" xmlns="http://www.w3.org/2000/svg">
<rect x="24" width="112" height="112" rx="56" fill="#8F48A3"/>
<path d="M77.2 72.9335L67.7333 63.4668L71.6 59.6002L77.2 65.2002L88.4 54.0002L92.2667 57.8668L77.2 72.9335ZM56 82.6668V34.6668H64V29.3335H69.3333V34.6668H90.6667V29.3335H96V34.6668H104V82.6668H56ZM61.3333 77.3335H98.6667V50.6668H61.3333V77.3335Z" fill="#FAFAFA"/>
<path d="M55.1613 150V138.8H62.2493V140.8H57.3533V143.344H61.5773V145.296H57.3533V148H62.3133V150H55.1613ZM68.1992 150L72.4392 138.8H74.7912L70.3432 150H68.1992ZM67.9592 150L63.4952 138.8H65.8472L70.1032 150H67.9592ZM76.1301 150V138.8H83.2181V140.8H78.3221V143.344H82.5461V145.296H78.3221V148H83.2821V150H76.1301ZM85.5519 150V138.8H87.8399L93.3119 146.32V138.8H95.4879V150H93.3119L87.7439 142.336V150H85.5519ZM100.295 150V140.8H96.9349V138.8H105.831V140.8H102.487V150H100.295ZM39.5676 174V162.8H43.7276C44.5169 162.8 45.2156 162.96 45.8236 163.28C46.4316 163.589 46.9062 164.027 47.2476 164.592C47.5889 165.147 47.7596 165.792 47.7596 166.528C47.7596 167.253 47.5942 167.899 47.2636 168.464C46.9329 169.029 46.4796 169.477 45.9036 169.808C45.3276 170.128 44.6609 170.288 43.9036 170.288H41.7596V174H39.5676ZM41.7596 168.272H43.8556C44.3462 168.272 44.7462 168.112 45.0556 167.792C45.3756 167.461 45.5356 167.04 45.5356 166.528C45.5356 166.016 45.3596 165.6 45.0076 165.28C44.6662 164.96 44.2236 164.8 43.6796 164.8H41.7596V168.272ZM49.2082 174V162.8H51.4002V172H56.3282V174H49.2082ZM65.5619 174L61.2739 162.8H63.4659L67.8819 174H65.5619ZM56.7139 174L61.1299 162.8H63.3219L59.0339 174H56.7139ZM58.7939 171.536V169.6H65.8179V171.536H58.7939ZM69.2238 174V162.8H71.5118L76.9838 170.32V162.8H79.1598V174H76.9838L71.4158 166.336V174H69.2238ZM81.5988 174V162.8H83.8868L89.3588 170.32V162.8H91.5348V174H89.3588L83.7908 166.336V174H81.5988ZM93.9738 174V162.8H96.1658V174H93.9738ZM98.5988 174V162.8H100.887L106.359 170.32V162.8H108.535V174H106.359L100.791 166.336V174H98.5988ZM116.174 174.192C115.032 174.192 114.019 173.947 113.134 173.456C112.259 172.955 111.571 172.272 111.07 171.408C110.568 170.533 110.318 169.531 110.318 168.4C110.318 167.269 110.568 166.272 111.07 165.408C111.571 164.533 112.259 163.851 113.134 163.36C114.019 162.859 115.032 162.608 116.174 162.608C116.856 162.608 117.486 162.709 118.062 162.912C118.638 163.115 119.144 163.397 119.582 163.76C120.03 164.112 120.403 164.517 120.702 164.976L118.91 166.096C118.728 165.808 118.488 165.552 118.19 165.328C117.902 165.104 117.582 164.928 117.23 164.8C116.878 164.672 116.526 164.608 116.174 164.608C115.47 164.608 114.846 164.773 114.302 165.104C113.758 165.424 113.331 165.867 113.022 166.432C112.712 166.997 112.558 167.653 112.558 168.4C112.558 169.136 112.707 169.792 113.006 170.368C113.315 170.944 113.747 171.397 114.302 171.728C114.856 172.048 115.496 172.208 116.222 172.208C116.787 172.208 117.288 172.096 117.726 171.872C118.174 171.648 118.526 171.333 118.782 170.928C119.038 170.523 119.166 170.053 119.166 169.52L121.246 169.2C121.246 170.256 121.027 171.157 120.59 171.904C120.163 172.651 119.566 173.221 118.798 173.616C118.04 174 117.166 174.192 116.174 174.192ZM116.542 169.712V168H121.246V169.36L120.062 169.712H116.542Z" fill="#FAFAFA"/>
</svg>
