<svg width="80" height="80" viewBox="0 0 80 80" fill="none" xmlns="http://www.w3.org/2000/svg">
<rect width="80" height="80" rx="12" fill="#0A1F33"/>
<g clip-path="url(#clip0_4339_1832)">
<path d="M34.8225 24.3927C34.9069 24.2519 34.9627 24.0958 34.9867 23.9334C35.0108 23.771 35.0026 23.6054 34.9627 23.4462C34.9228 23.2869 34.8519 23.1371 34.754 23.0052C34.6562 22.8734 34.5333 22.7621 34.3925 22.6777C34.2517 22.5934 34.0956 22.5375 33.9332 22.5135C33.7708 22.4894 33.6052 22.4976 33.4459 22.5375C33.2867 22.5775 33.1369 22.6484 33.005 22.7462C32.8732 22.844 32.7619 22.9669 32.6775 23.1077L25.5425 35.0002H21.25C20.9185 35.0002 20.6005 35.1319 20.3661 35.3663C20.1317 35.6008 20 35.9187 20 36.2502V38.7502C20 39.0817 20.1317 39.3997 20.3661 39.6341C20.6005 39.8685 20.9185 40.0002 21.25 40.0002H22.8075L27.4175 56.1402C27.5296 56.5328 27.7668 56.878 28.0931 57.1235C28.4193 57.3689 28.8167 57.5012 29.225 57.5002H50.78C51.1878 57.5007 51.5847 57.3682 51.9104 57.1227C52.2362 56.8773 52.473 56.5324 52.585 56.1402L57.1925 40.0002H58.75C59.0815 40.0002 59.3995 39.8685 59.6339 39.6341C59.8683 39.3997 60 39.0817 60 38.7502V36.2502C60 35.9187 59.8683 35.6008 59.6339 35.3663C59.3995 35.1319 59.0815 35.0002 58.75 35.0002H54.4575L47.325 23.1077C47.2406 22.9669 47.1293 22.844 46.9975 22.7462C46.8656 22.6484 46.7158 22.5775 46.5566 22.5375C46.3973 22.4976 46.2317 22.4894 46.0693 22.5135C45.9069 22.5375 45.7508 22.5934 45.61 22.6777C45.4692 22.7621 45.3463 22.8734 45.2485 23.0052C45.1506 23.1371 45.0797 23.2869 45.0398 23.4462C44.9999 23.6054 44.9917 23.771 45.0158 23.9334C45.0398 24.0958 45.0956 24.2519 45.18 24.3927L51.5425 35.0002H28.4575L34.8225 24.3927ZM30 45.0002C30 44.3372 30.2634 43.7013 30.7322 43.2325C31.2011 42.7636 31.837 42.5002 32.5 42.5002C33.163 42.5002 33.7989 42.7636 34.2678 43.2325C34.7366 43.7013 35 44.3372 35 45.0002V50.0002C35 50.6633 34.7366 51.2992 34.2678 51.768C33.7989 52.2368 33.163 52.5002 32.5 52.5002C31.837 52.5002 31.2011 52.2368 30.7322 51.768C30.2634 51.2992 30 50.6633 30 50.0002V45.0002ZM37.5 45.0002C37.5 44.3372 37.7634 43.7013 38.2322 43.2325C38.7011 42.7636 39.337 42.5002 40 42.5002C40.663 42.5002 41.2989 42.7636 41.7678 43.2325C42.2366 43.7013 42.5 44.3372 42.5 45.0002V50.0002C42.5 50.6633 42.2366 51.2992 41.7678 51.768C41.2989 52.2368 40.663 52.5002 40 52.5002C39.337 52.5002 38.7011 52.2368 38.2322 51.768C37.7634 51.2992 37.5 50.6633 37.5 50.0002V45.0002ZM47.5 42.5002C48.163 42.5002 48.7989 42.7636 49.2678 43.2325C49.7366 43.7013 50 44.3372 50 45.0002V50.0002C50 50.6633 49.7366 51.2992 49.2678 51.768C48.7989 52.2368 48.163 52.5002 47.5 52.5002C46.837 52.5002 46.2011 52.2368 45.7322 51.768C45.2634 51.2992 45 50.6633 45 50.0002V45.0002C45 44.3372 45.2634 43.7013 45.7322 43.2325C46.2011 42.7636 46.837 42.5002 47.5 42.5002Z" fill="#FAFAFA"/>
</g>
<defs>
<clipPath id="clip0_4339_1832">
<rect width="40" height="40" fill="white" transform="translate(20 20)"/>
</clipPath>
</defs>
</svg>
