<svg width="80" height="80" viewBox="0 0 80 80" fill="none" xmlns="http://www.w3.org/2000/svg">
<rect width="80" height="80" rx="12" fill="#0A1F33"/>
<g clip-path="url(#clip0_4277_1321)">
<path d="M32.2222 38.3335L31.1111 41.7779H33.3333L32.2222 38.3335Z" fill="#FAFAFA"/>
<path d="M53.6668 23.3335H35.889V28.8891H40.3334V31.1113H25.889C24.0001 31.1113 22.5557 32.5557 22.5557 34.4446V46.6668C22.5557 48.5557 24.0001 50.0002 25.889 50.0002H27.0001V55.6668L34.0001 50.0002H41.4446V42.2224H53.6668C55.5557 42.2224 57.0001 40.7779 57.0001 38.8891V26.6668C57.0001 24.7779 55.5557 23.3335 53.6668 23.3335ZM34.5557 45.4446L34.0001 43.6668H30.5557L29.889 45.4446H27.2223L30.889 35.5557H33.5557L37.2223 45.4446H34.5557ZM51.4446 36.6668V38.8891C50.0001 38.8891 48.4446 38.4446 47.1112 37.7779C45.7779 38.4446 44.2223 38.7779 42.6668 38.8891L42.5557 36.6668C43.3334 36.6668 44.1112 36.5557 44.889 36.3335C43.889 35.3335 43.2223 34.1113 42.889 32.7779H45.2223C45.5557 33.7779 46.2223 34.5557 47.0001 35.2224C48.2223 34.2224 49.0001 32.7779 49.1112 31.1113H42.4446V28.8891H45.7779V26.6668H48.0001V28.8891H51.6668L51.7779 30.0002C51.889 32.3335 51.0001 34.6668 49.3334 36.3335C50.1112 36.5557 50.7779 36.6668 51.4446 36.6668Z" fill="#FAFAFA"/>
</g>
<defs>
<clipPath id="clip0_4277_1321">
<rect width="40" height="40" fill="white" transform="translate(20 20)"/>
</clipPath>
</defs>
</svg>
