<svg width="112" height="112" viewBox="0 0 112 112" fill="none" xmlns="http://www.w3.org/2000/svg">
<rect width="112" height="112" rx="56" fill="#FDBF50"/>
<path d="M75.92 39.9875L71.16 34.0375C70.1065 32.7323 68.6833 32 67.2 32H44.52C43.04 32 41.61 32.7375 40.56 34.0375L35.8 39.9875H24V71.95H30.4C32.16 71.95 33.58 70.175 33.59 67.9875H34.5L42.96 77.5375C46.05 80.675 50.34 80.75 53.52 78.0125C54.77 79.3625 56.12 80 57.63 80C59.45 80 61.16 79.075 62.51 77C64.72 78.0875 67.33 77.325 68.91 74.9L71.53 70.8625C72.09 70 72.44 69.0125 72.62 67.9875H78.41C78.42 70.175 79.85 71.95 81.6 71.95H88V39.9875H75.92ZM28.8 67.95C27.92 67.95 27.2 67.05 27.2 65.95C27.2 64.85 27.92 63.95 28.8 63.95C29.68 63.95 30.4 64.85 30.4 65.95C30.4 67.0625 29.68 67.95 28.8 67.95ZM67.8 67.0875L65.19 71.1125C64.91 71.5375 64.41 71.6125 64.06 71.2625L61.67 68.8375L58.67 73.4C58.07 74.3125 57.17 74 56.87 73.7L53.19 69.7625L51.63 72.1625C50.24 74.3 47.71 74.625 46.1 72.9875L36.37 61.9875H33.6V45.975H37.79L43.96 38.275C44.16 38.175 44.33 38.0875 44.53 37.9875H50.2L46.33 42.425C43.39 45.7875 43.22 51.4625 45.89 55.0875C47.37 57.1125 52.01 60.2375 56.04 55.6375L56.86 54.7L67.68 65.675C68.02 66.025 68.07 66.6625 67.8 67.0875ZM78.4 61.9875H71.48C71.25 61.6375 70.99 61.3125 70.71 61.025L60.44 50.6L61.69 49.175C62.34 48.425 62.39 47.1625 61.79 46.35L60.7 44.8875C60.1 44.075 59.09 44.025 58.44 44.7625L52.92 51.0875C51.97 52.175 50.35 52.2625 49.46 51.0875C48.53 49.85 48.61 47.95 49.58 46.85L56.14 39.3375C56.88 38.4875 57.84 38.025 58.84 38.025L67.21 38C67.42 38 67.62 38.1 67.76 38.2875L73.93 45.9875H78.4V61.9875ZM83.2 67.95C82.32 67.95 81.6 67.05 81.6 65.95C81.6 64.85 82.32 63.95 83.2 63.95C84.08 63.95 84.8 64.85 84.8 65.95C84.8 67.0625 84.08 67.95 83.2 67.95Z" fill="#FAFAFA"/>
</svg>
