<svg width="60" height="60" viewBox="0 0 60 60" fill="none" xmlns="http://www.w3.org/2000/svg">
<path d="M40.6 42C37.8222 42 35.0778 41.3947 32.3667 40.184C29.6556 38.9733 27.1889 37.2564 24.9667 35.0333C22.7444 32.8111 21.028 30.3444 19.8173 27.6333C18.6067 24.9222 18.0009 22.1778 18 19.4C18 19 18.1333 18.6667 18.4 18.4C18.6667 18.1333 19 18 19.4 18H24.8C25.1111 18 25.3889 18.1058 25.6333 18.3173C25.8778 18.5289 26.0222 18.7787 26.0667 19.0667L26.9333 23.7333C26.9778 24.0889 26.9667 24.3889 26.9 24.6333C26.8333 24.8778 26.7111 25.0889 26.5333 25.2667L23.3 28.5333C23.7444 29.3556 24.272 30.1498 24.8827 30.916C25.4933 31.6822 26.1658 32.4213 26.9 33.1333C27.5889 33.8222 28.3111 34.4613 29.0667 35.0507C29.8222 35.64 30.6222 36.1787 31.4667 36.6667L34.6 33.5333C34.8 33.3333 35.0613 33.1836 35.384 33.084C35.7067 32.9844 36.0231 32.9564 36.3333 33L40.9333 33.9333C41.2444 34.0222 41.5 34.1836 41.7 34.4173C41.9 34.6511 42 34.912 42 35.2V40.6C42 41 41.8667 41.3333 41.6 41.6C41.3333 41.8667 41 42 40.6 42Z" fill="#0A1F33"/>
</svg>
