<svg width="80" height="80" viewBox="0 0 80 80" fill="none" xmlns="http://www.w3.org/2000/svg">
<rect width="80" height="80" rx="12" fill="#0A1F33"/>
<path d="M24.0109 21.8462L23.4891 23.1524L29.7422 25.6532L30.2578 24.347L24.0109 21.8462ZM55.9922 21.847L49.7422 24.347L50.2578 25.6532L56.5078 23.1532L55.9922 21.847ZM40 21.9532C37.7344 21.9532 36.0937 23.0532 34.9453 24.6321C33.7969 26.2118 33.2031 28.2813 33.2031 30.0001C33.2031 31.0157 33.75 32.172 34.3359 33.047C34.9219 33.922 35.5 34.5001 35.5 34.5001L35.6172 34.6173L36.3437 36.797H37.8125L35.2109 27.6618L40 29.2579L44.7891 27.6618L42.1875 36.797H43.6562L44.3828 34.6173L44.5 34.5001C44.5 34.5001 45.0781 33.922 45.6641 33.047C46.25 32.172 46.7969 31.0157 46.7969 30.0001C46.7969 28.2813 46.2031 26.2118 45.0547 24.6321C43.9062 23.0532 42.2656 21.9532 40 21.9532ZM50 29.297V30.7032H57.5V29.297H50ZM22.5 29.3048V30.711H30V29.3048H22.5ZM37.2891 29.836L39.2812 36.797H40.7187L42.7109 29.836L40 30.7423L37.2891 29.836ZM50.2578 34.3438L49.7422 35.6563L55.9922 38.1563L56.5078 36.8438L50.2578 34.3438ZM29.7422 34.3517L23.4891 36.8517L24.0109 38.1642L30.2578 35.6642L29.7422 34.3517ZM36.9531 38.2032V39.297H43.0469V38.2032H36.9531ZM36.9531 40.7032V41.797H43.0469V40.7032H36.9531ZM33.2891 40.9063C31.1719 40.9454 29.1797 41.297 28.0625 41.7735L22.3281 57.8204C27.8828 56.7188 33.5703 55.7892 39.2969 57.7501V43.2032H35.5469V40.9923C34.9297 40.9376 34.2969 40.9063 33.6797 40.9063H33.2891ZM46.3203 40.9063C45.7031 40.9063 45.0703 40.9376 44.4531 40.9923V43.2032H40.7031V57.7501C46.4297 55.7892 52.1172 56.7188 57.6719 57.8204L51.9375 41.7735C50.8203 41.297 48.8281 40.9454 46.7109 40.9063H46.3203Z" fill="#FAFAFA"/>
</svg>
