<svg width="80" height="80" viewBox="0 0 80 80" fill="none" xmlns="http://www.w3.org/2000/svg">
<rect width="80" height="80" rx="12" fill="#0A1F33"/>
<path fill-rule="evenodd" clip-rule="evenodd" d="M39.9934 41.6667H40.0267C44.6292 41.6667 48.36 37.9358 48.36 33.3333C48.36 28.7308 44.6292 25 40.0267 25H39.96C35.3884 25.0358 31.6934 28.7533 31.6934 33.3333C31.6934 37.9133 35.3884 41.6308 39.96 41.6667H39.9934ZM46.6417 34.1667H44.975C44.9417 34.7417 44.8717 35.2992 44.7709 35.8333H46.2092C46.4217 35.3083 46.5692 34.7492 46.6425 34.1667M45.2317 37.5H44.3317C44.1609 37.9917 43.9609 38.4525 43.735 38.875C44.3006 38.4953 44.8058 38.0317 45.2317 37.5ZM43.0709 35.8333C43.185 35.3108 43.2659 34.7525 43.305 34.1667H40.86V35.8333H43.0709ZM40.86 37.5H42.5459C42.4195 37.7991 42.2727 38.0893 42.1067 38.3683C41.69 39.0608 41.2592 39.4892 40.86 39.7317V37.5ZM39.1934 35.8333V34.1667H36.695C36.7342 34.7525 36.815 35.3108 36.9292 35.8333H39.1934ZM37.4542 37.5H39.1934V39.7633C38.78 39.5267 38.3284 39.0925 37.8934 38.3683C37.7273 38.0893 37.5806 37.7991 37.4542 37.5ZM35.2292 35.8333C35.1259 35.2827 35.0577 34.726 35.025 34.1667H33.4117C33.4842 34.7492 33.6317 35.3083 33.845 35.8333H35.2292ZM34.8225 37.5H35.6692C35.8317 37.97 36.0225 38.4117 36.2359 38.8175C35.7036 38.4489 35.2275 38.0051 34.8225 37.5ZM44.975 32.5C44.9422 31.9407 44.8741 31.384 44.7709 30.8333H46.2092C46.4217 31.3583 46.5692 31.9175 46.6425 32.5H44.975ZM45.2309 29.1667H44.3309C44.1682 28.6935 43.9687 28.2337 43.7342 27.7917C44.3001 28.1713 44.8047 28.6349 45.2309 29.1667ZM40.86 29.1667H42.5459C42.4195 28.8675 42.2727 28.5774 42.1067 28.2983C41.69 27.605 41.2592 27.1775 40.86 26.935V29.1667ZM43.0709 30.8333H40.86V32.5H43.305C43.2681 31.9394 43.1899 31.3824 43.0709 30.8333ZM39.1934 26.9033V29.1667H37.4542C37.5875 28.8525 37.7359 28.5617 37.8934 28.2983C38.3275 27.5742 38.78 27.14 39.1934 26.9033ZM39.1934 30.8333H36.9292C36.8102 31.3824 36.7319 31.9394 36.695 32.5H39.1934V30.8333ZM36.235 27.8492C36.0136 28.2736 35.8242 28.714 35.6684 29.1667H34.8225C35.2275 28.6616 35.7028 28.2178 36.235 27.8492ZM35.23 30.8333H33.845C33.6286 31.3677 33.483 31.9279 33.4117 32.5H35.0259C35.0592 31.925 35.1292 31.3675 35.23 30.8333Z" fill="#FAFAFA"/>
<path d="M28.4242 47.184C28.8967 47.6856 29.3658 48.184 29.8075 48.8173V49.9998H36.0017V48.8173C35.8908 47.8973 35.6958 46.2398 35.6783 45.779C35.655 45.1307 34.785 43.949 34.785 43.949L32.1142 40.5823C32.1142 40.5823 31.3583 39.784 30.9258 38.899C30.4925 38.0132 29.5725 39.1273 29.4508 39.924C29.3275 40.7207 29.5608 41.1407 29.5608 41.1407L31.0858 44.1723C31.0858 44.1723 29.3175 41.7498 28.7683 40.7765C28.49 40.2832 28.4125 39.2382 28.325 38.0707C28.2408 36.9332 28.1475 35.679 27.8517 34.704C27.2517 32.729 25.5167 33.2232 25.2158 34.1065C24.9158 34.989 24.9833 40.8215 25.0925 41.794C25.1783 42.5557 25.6375 43.3007 26.155 44.1407C26.2983 44.374 26.4467 44.614 26.5925 44.8632C27.1725 45.8565 27.8008 46.524 28.4242 47.184ZM50.1942 48.8173C50.6358 48.184 51.105 47.6856 51.5775 47.184C52.2008 46.524 52.8292 45.8565 53.41 44.8632C53.555 44.6132 53.7033 44.374 53.8467 44.1415C54.3642 43.3015 54.8233 42.5557 54.9092 41.794C55.0183 40.8215 55.0867 34.989 54.7858 34.1065C54.485 33.2232 52.75 32.729 52.15 34.7048C51.855 35.6798 51.7617 36.9332 51.6767 38.0707C51.5892 39.2382 51.5117 40.2832 51.2333 40.7765C50.6842 41.7507 48.915 44.1723 48.915 44.1723L50.4408 41.1407C50.4408 41.1407 50.6742 40.7207 50.5517 39.924C50.4292 39.1273 49.5092 38.0132 49.0767 38.899C48.6433 39.784 47.8875 40.5823 47.8875 40.5823L45.2167 43.949C45.2167 43.949 44.3467 45.1307 44.3233 45.779C44.3067 46.2398 44.1108 47.8973 44 48.8173V49.9998H50.1942V48.8173ZM41.6667 54.1665C41.6667 54.3875 41.7545 54.5995 41.9107 54.7557C42.067 54.912 42.279 54.9998 42.5 54.9998H49.1667C49.3877 54.9998 49.5996 54.912 49.7559 54.7557C49.9122 54.5995 50 54.3875 50 54.1665V52.4998C50 52.2788 49.9122 52.0668 49.7559 51.9106C49.5996 51.7543 49.3877 51.6665 49.1667 51.6665H42.5C42.279 51.6665 42.067 51.7543 41.9107 51.9106C41.7545 52.0668 41.6667 52.2788 41.6667 52.4998V54.1665ZM38.335 54.1665C38.335 54.3875 38.2472 54.5995 38.0909 54.7557C37.9346 54.912 37.7227 54.9998 37.5017 54.9998H30.835C30.614 54.9998 30.402 54.912 30.2457 54.7557C30.0895 54.5995 30.0017 54.3875 30.0017 54.1665V52.4998C30.0017 52.2788 30.0895 52.0668 30.2457 51.9106C30.402 51.7543 30.614 51.6665 30.835 51.6665H37.5017C37.7227 51.6665 37.9346 51.7543 38.0909 51.9106C38.2472 52.0668 38.335 52.2788 38.335 52.4998V54.1665Z" fill="#FAFAFA"/>
</svg>
