<svg width="112" height="112" viewBox="0 0 112 112" fill="none" xmlns="http://www.w3.org/2000/svg">
<rect width="112" height="112" rx="56" fill="#002A62"/>
<path d="M77.3332 40.0002C78.8799 40.0002 80.1332 40.5335 81.1199 41.5735C82.1332 42.6668 82.6666 43.8668 82.6666 45.3335V74.6668C82.6666 76.1335 82.1332 77.3335 81.1199 78.4268C80.1332 79.4668 78.8799 80.0002 77.3332 80.0002H34.6666C33.1199 80.0002 31.8666 79.4668 30.8799 78.4268C29.8666 77.3335 29.3333 76.1335 29.3333 74.6668V45.3335C29.3333 43.8668 29.8666 42.6668 30.8799 41.5735C31.8666 40.5335 33.1199 40.0002 34.6666 40.0002H45.3333V34.6668C45.3333 33.1202 45.8666 31.8668 46.8799 30.8802C47.8666 29.8668 49.1199 29.3335 50.6666 29.3335H61.3333C62.8799 29.3335 64.1333 29.8668 65.1199 30.8802C66.1333 31.8668 66.6666 33.1202 66.6666 34.6668V40.0002H77.3332ZM34.6666 45.3335V74.6668H77.3332V45.3335H34.6666ZM61.3333 40.0002V34.6668H50.6666V40.0002H61.3333Z" fill="#FAFAFA"/>
</svg>
