<svg width="80" height="80" viewBox="0 0 80 80" fill="none" xmlns="http://www.w3.org/2000/svg">
<rect width="80" height="80" rx="12" fill="#0A1F33"/>
<path d="M41.6666 24.9998C48.1666 24.9998 53.3333 30.1665 53.3333 36.6665C53.3333 41.3332 50.6666 45.3332 46.6666 47.1665V54.9998H34.9999V49.9998H33.3333C31.4999 49.9998 29.9999 48.4998 29.9999 46.6665V41.6665H27.4999C26.8333 41.6665 26.3333 40.8332 26.8333 40.3332L29.9999 36.1665C30.3333 29.8332 35.3333 24.9998 41.6666 24.9998ZM41.6666 21.6665C33.9999 21.6665 27.6666 27.3332 26.8333 34.8332L24.1666 38.3332C23.1666 39.6665 23.1666 41.3332 23.8333 42.6665C24.4999 43.8332 25.4999 44.6665 26.6666 44.8332V46.6665C26.6666 49.8332 28.8333 52.3332 31.6666 53.1665V58.3332H49.9999V49.1665C54.1666 46.3332 56.6666 41.8332 56.6666 36.6665C56.6666 28.3332 49.9999 21.6665 41.6666 21.6665ZM43.3333 43.3332H39.9999V41.6665H43.3333V43.3332ZM45.9999 35.8332C45.4999 36.4998 44.9999 37.1665 44.1666 37.6665V39.9998H39.1666V37.6665C36.8333 36.3332 35.9999 33.1665 37.3333 30.8332C38.6666 28.4998 41.8333 27.6665 44.1666 28.9998C46.4999 30.3332 47.3333 33.4998 45.9999 35.8332Z" fill="#FAFAFA"/>
</svg>
