<svg width="112" height="112" viewBox="0 0 112 112" fill="none" xmlns="http://www.w3.org/2000/svg">
<rect width="112" height="112" rx="56" fill="#002A62"/>
<path d="M82 63H81V42C81 40.1435 80.2625 38.363 78.9497 37.0503C77.637 35.7375 75.8565 35 74 35H38C36.1435 35 34.363 35.7375 33.0503 37.0503C31.7375 38.363 31 40.1435 31 42V63H30C29.2044 63 28.4413 63.3161 27.8787 63.8787C27.3161 64.4413 27 65.2044 27 66V72C27 73.8565 27.7375 75.637 29.0503 76.9497C30.363 78.2625 32.1435 79 34 79H78C79.8565 79 81.637 78.2625 82.9497 76.9497C84.2625 75.637 85 73.8565 85 72V66C85 65.2044 84.6839 64.4413 84.1213 63.8787C83.5587 63.3161 82.7957 63 82 63ZM37 42C37 41.7348 37.1054 41.4804 37.2929 41.2929C37.4804 41.1054 37.7348 41 38 41H74C74.2652 41 74.5196 41.1054 74.7071 41.2929C74.8946 41.4804 75 41.7348 75 42V63H37V42ZM79 72C79 72.2652 78.8946 72.5196 78.7071 72.7071C78.5196 72.8946 78.2652 73 78 73H34C33.7348 73 33.4804 72.8946 33.2929 72.7071C33.1054 72.5196 33 72.2652 33 72V69H79V72ZM63 48C63 48.7956 62.6839 49.5587 62.1213 50.1213C61.5587 50.6839 60.7957 51 60 51H52C51.2044 51 50.4413 50.6839 49.8787 50.1213C49.3161 49.5587 49 48.7956 49 48C49 47.2044 49.3161 46.4413 49.8787 45.8787C50.4413 45.3161 51.2044 45 52 45H60C60.7957 45 61.5587 45.3161 62.1213 45.8787C62.6839 46.4413 63 47.2044 63 48Z" fill="#FAFAFA"/>
</svg>
