<svg width="120" height="120" viewBox="0 0 120 120" fill="none" xmlns="http://www.w3.org/2000/svg">
<rect width="120" height="120" rx="60" fill="#369FFF"/>
<path d="M46.5 28.5C44.1131 28.5 41.8239 29.4482 40.136 31.136C38.4482 32.8239 37.5 35.1131 37.5 37.5V47.067C38.94 46.698 40.4475 46.5 42 46.5V37.5C42 36.3065 42.4741 35.1619 43.318 34.318C44.1619 33.4741 45.3065 33 46.5 33H60V44.25C60 46.0402 60.7112 47.7571 61.977 49.023C63.2429 50.2888 64.9598 51 66.75 51H78V82.5C78 83.6935 77.5259 84.8381 76.682 85.682C75.8381 86.5259 74.6935 87 73.5 87H55.5V90.375C55.5 90.762 55.464 91.14 55.392 91.5H73.5C75.8869 91.5 78.1761 90.5518 79.864 88.864C81.5518 87.1761 82.5 84.887 82.5 82.5V48.3585C82.4984 46.5689 81.7862 44.8532 80.52 43.5885L67.4115 30.471C66.1443 29.207 64.4269 28.498 62.637 28.5H46.5ZM77.0685 46.5H66.75C66.1533 46.5 65.581 46.263 65.159 45.841C64.7371 45.419 64.5 44.8467 64.5 44.25V33.9315L77.0685 46.5ZM55.5 64.5C55.5 66.2729 55.1508 68.0283 54.4724 69.6662C53.7939 71.3041 52.7995 72.7924 51.5459 74.0459C50.2924 75.2995 48.8041 76.2939 47.1662 76.9724C45.5283 77.6508 43.7728 78 42 78C40.2272 78 38.4717 77.6508 36.8338 76.9724C35.1959 76.2939 33.7076 75.2995 32.4541 74.0459C31.2005 72.7924 30.2061 71.3041 29.5276 69.6662C28.8492 68.0283 28.5 66.2729 28.5 64.5C28.5 60.9196 29.9223 57.4858 32.4541 54.9541C34.9858 52.4223 38.4196 51 42 51C45.5804 51 49.0142 52.4223 51.5459 54.9541C54.0777 57.4858 55.5 60.9196 55.5 64.5ZM51 80.088C48.2652 81.6716 45.1602 82.5037 42 82.5C38.8402 82.5051 35.7353 81.6745 33 80.0925V90.3795C33.0006 90.578 33.0537 90.7729 33.1539 90.9442C33.2542 91.1156 33.398 91.2573 33.5707 91.3551C33.7435 91.453 33.9391 91.5033 34.1376 91.5011C34.3361 91.4989 34.5305 91.4441 34.701 91.3425L42 87L49.299 91.3425C49.4699 91.4443 49.6647 91.4991 49.8635 91.5011C50.0624 91.5031 50.2583 91.4524 50.4312 91.354C50.6041 91.2557 50.7478 91.1133 50.8477 90.9413C50.9477 90.7693 51.0002 90.5739 51 90.375V80.088Z" fill="#FAFAFA"/>
</svg>
