<svg width="80" height="80" viewBox="0 0 80 80" fill="none" xmlns="http://www.w3.org/2000/svg">
<rect width="80" height="80" rx="12" fill="#0A1F33"/>
<path d="M52.1518 29.9998H53.3352C53.7772 29.9998 54.2011 30.1754 54.5137 30.4879C54.8262 30.8005 55.0018 31.2244 55.0018 31.6664V43.3331C55.0018 43.7751 54.8262 44.1991 54.5137 44.5116C54.2011 44.8242 53.7772 44.9998 53.3352 44.9998H50.0018L43.0518 35.2731C42.6476 34.7075 42.0767 34.2825 41.4189 34.0574C40.7611 33.8324 40.0495 33.8187 39.3835 34.0181L35.2402 35.2614C34.6638 35.434 34.0515 35.4473 33.4681 35.3C32.8848 35.1527 32.3522 34.8503 31.9268 34.4248L31.4385 33.9365C31.2641 33.7621 31.1306 33.5513 31.0476 33.3192C30.9646 33.087 30.9341 32.8394 30.9583 32.594C30.9825 32.3487 31.0609 32.1117 31.1877 31.9003C31.3146 31.6889 31.4867 31.5083 31.6918 31.3714L40.6935 25.3714C41.2309 25.013 41.8608 24.8183 42.5067 24.8112C43.1526 24.8041 43.7867 24.9849 44.3318 25.3314L51.2585 29.7398C51.5251 29.9092 51.836 29.9994 52.1518 29.9998ZM28.3785 43.8248L25.6852 46.1814C25.5011 46.3428 25.3548 46.5427 25.2567 46.767C25.1587 46.9913 25.1112 47.2344 25.1177 47.4792C25.1243 47.7239 25.1846 47.9641 25.2945 48.1829C25.4044 48.4016 25.5611 48.5935 25.7535 48.7448L34.3202 55.4781C34.5085 55.6264 34.7266 55.7322 34.9595 55.7885C35.1925 55.8449 35.4348 55.8502 35.6701 55.8044C35.9053 55.7585 36.1279 55.6624 36.3226 55.5227C36.5174 55.383 36.6797 55.2029 36.7985 54.9948L37.9718 52.9414C38.3212 52.33 38.468 51.6235 38.391 50.9235C38.3141 50.2234 38.0174 49.5658 37.5435 49.0448L33.0402 44.0914C32.4529 43.4453 31.6355 43.0554 30.7638 43.0055C29.8921 42.9557 29.0356 43.2498 28.3785 43.8248ZM31.7435 28.3331H25.0002C24.5581 28.3331 24.1342 28.5087 23.8217 28.8213C23.5091 29.1338 23.3335 29.5578 23.3335 29.9998V42.5264C23.3336 43.1987 23.5369 43.8552 23.9168 44.4098C23.9572 44.3723 23.9984 44.3357 24.0402 44.2998L26.7318 41.9431C27.8818 40.9368 29.3808 40.422 30.9064 40.5092C32.432 40.5965 33.8624 41.2789 34.8902 42.4098L39.3935 47.3631C40.2223 48.2746 40.7413 49.425 40.876 50.6496C41.0107 51.8741 40.7543 53.1099 40.1435 54.1798L39.0518 56.0898C39.5228 56.2684 40.0281 56.3379 40.5298 56.2932C41.0315 56.2484 41.5166 56.0906 41.9485 55.8314L49.2985 51.4214C49.4956 51.303 49.666 51.1451 49.7991 50.9577C49.9322 50.7702 50.0251 50.5572 50.0719 50.3321C50.1187 50.107 50.1184 49.8747 50.0711 49.6497C50.0237 49.4247 49.9304 49.2119 49.7968 49.0248L41.0185 36.7264C40.9174 36.5852 40.7747 36.4791 40.6104 36.4229C40.446 36.3667 40.2682 36.3633 40.1018 36.4131L35.9585 37.6548C34.9498 37.9574 33.878 37.9813 32.8569 37.7239C31.8357 37.4666 30.9033 36.9376 30.1585 36.1931L29.6702 35.7048C29.2341 35.269 28.9002 34.7419 28.6926 34.1614C28.4849 33.581 28.4086 32.9617 28.4692 32.3482C28.5297 31.7348 28.7257 31.1424 29.0429 30.6138C29.3601 30.0852 29.7907 29.6335 30.3035 29.2914L31.7435 28.3331Z" fill="#FAFAFA"/>
</svg>
