<svg width="80" height="80" viewBox="0 0 80 80" fill="none" xmlns="http://www.w3.org/2000/svg">
<rect width="80" height="80" rx="12" fill="#0A1F33"/>
<path d="M39.9866 44.4169C39.1115 44.4177 38.2559 44.1585 37.5284 43.6722C36.8008 43.1859 36.2341 42.4944 35.9002 41.6855C35.5663 40.8766 35.4802 39.9867 35.6529 39.1288C35.8255 38.2709 36.2491 37.4836 36.87 36.8669C36.9871 36.7509 37.1259 36.6591 37.2784 36.5967C37.431 36.5344 37.5944 36.5027 37.7592 36.5034C37.924 36.5042 38.0871 36.5374 38.2391 36.6012C38.391 36.665 38.529 36.7581 38.645 36.8752C38.761 36.9923 38.8528 37.1311 38.9151 37.2837C38.9775 37.4363 39.0092 37.5996 39.0084 37.7644C39.0076 37.9293 38.9744 38.0923 38.9106 38.2443C38.8468 38.3963 38.7537 38.5342 38.6366 38.6502C38.4568 38.826 38.3141 39.036 38.2167 39.2679C38.1194 39.4998 38.0695 39.7488 38.07 40.0002C38.0478 40.3961 38.15 40.7889 38.3623 41.1238C38.5746 41.4586 38.8863 41.7186 39.2538 41.8675C39.6212 42.0163 40.0261 42.0464 40.4115 41.9537C40.797 41.8609 41.1438 41.6499 41.4033 41.3502C41.6405 41.1151 41.961 40.9832 42.295 40.9832C42.629 40.9832 42.9494 41.1151 43.1866 41.3502C43.4178 41.5895 43.547 41.9092 43.547 42.2419C43.547 42.5746 43.4178 42.8943 43.1866 43.1335C42.7654 43.5496 42.2654 43.8774 41.716 44.0977C41.1665 44.3181 40.5786 44.4266 39.9866 44.4169Z" fill="#FAFAFA"/>
<path d="M57.07 39.9998C57.07 44.5306 55.2701 48.8758 52.0664 52.0796C48.8626 55.2833 44.5174 57.0832 39.9867 57.0832C35.4559 57.0832 31.1107 55.2833 27.9069 52.0796C24.7032 48.8758 22.9033 44.5306 22.9033 39.9998C22.9033 35.4691 24.7032 31.1238 27.9069 27.9201C31.1107 24.7163 35.4559 22.9165 39.9867 22.9165C40.3182 22.9165 40.6361 23.0482 40.8705 23.2826C41.105 23.517 41.2367 23.835 41.2367 24.1665V30.4998C41.2323 30.83 41.0993 31.1455 40.8658 31.3789C40.6323 31.6124 40.3168 31.7455 39.9867 31.7498C38.3544 31.7386 36.7568 32.2208 35.4033 33.1332C34.0422 34.0353 32.9807 35.3224 32.3544 36.8304C31.728 38.3384 31.5652 39.9989 31.8867 41.5998C32.4095 43.4991 33.5882 45.1518 35.2137 46.2646C36.8393 47.3774 38.8065 47.8784 40.7663 47.6786C42.726 47.4788 44.5517 46.5912 45.9192 45.1733C47.2868 43.7554 48.1078 41.8989 48.2367 39.9332C48.2346 39.7685 48.2656 39.605 48.3277 39.4524C48.3898 39.2999 48.4818 39.1613 48.5983 39.0448C48.7148 38.9283 48.8534 38.8363 49.0059 38.7742C49.1585 38.7121 49.3219 38.6812 49.4867 38.6832H55.82C55.9899 38.6829 56.1581 38.7173 56.3143 38.7843C56.4704 38.8512 56.6113 38.9493 56.7283 39.0725C56.8453 39.1958 56.9359 39.3415 56.9947 39.501C57.0534 39.6604 57.079 39.8302 57.07 39.9998Z" fill="#FAFAFA"/>
<path d="M56.47 30.2168C56.4265 30.541 56.2938 30.8468 56.0867 31.1001L52.47 34.7168C51.957 35.2349 51.3203 35.6135 50.62 35.8168C50.2101 35.9441 49.7826 36.0059 49.3534 36.0001C49.0594 36.0247 48.764 36.0247 48.47 36.0001L46.2534 35.5668L42.4534 39.3834C42.2153 39.612 41.9 39.7429 41.57 39.7501C41.2386 39.7498 40.9209 39.6179 40.6867 39.3834C40.5688 39.2685 40.475 39.1312 40.4111 38.9794C40.3471 38.8277 40.3141 38.6647 40.3141 38.5001C40.3141 38.3354 40.3471 38.1724 40.4111 38.0207C40.475 37.869 40.5688 37.7317 40.6867 37.6168L44.5034 33.7834L44.0534 31.5834C43.9189 30.8743 43.9531 30.1435 44.1534 29.4501C44.3566 28.7498 44.7352 28.1131 45.2534 27.6001L48.8367 24.0168C49.0829 23.7928 49.3906 23.6477 49.72 23.6001C50.0283 23.5543 50.3432 23.6068 50.62 23.7501C50.8951 23.89 51.1258 24.1035 51.2867 24.3668C51.4495 24.6614 51.5192 24.9984 51.4867 25.3334L50.9534 29.1001L54.7034 28.5834C55.0173 28.5526 55.3332 28.6173 55.6097 28.7689C55.8863 28.9206 56.1106 29.1522 56.2534 29.4334C56.3891 29.6727 56.4636 29.9418 56.47 30.2168Z" fill="#FAFAFA"/>
</svg>
