<svg width="80" height="80" viewBox="0 0 80 80" fill="none" xmlns="http://www.w3.org/2000/svg">
<rect width="80" height="80" rx="12" fill="#0A1F33"/>
<path d="M40.0001 37.7555C42.921 37.7555 45.289 35.4174 45.289 32.5333C45.289 29.6491 42.921 27.311 40.0001 27.311C37.0791 27.311 34.7112 29.6491 34.7112 32.5333C34.7112 35.4174 37.0791 37.7555 40.0001 37.7555Z" fill="#FAFAFA"/>
<path d="M31.9777 33.0555H32.5111V32.5777C32.5143 31.1884 32.9063 29.8277 33.6426 28.6495C34.379 27.4714 35.4303 26.5228 36.6777 25.9111C36.3085 25.0606 35.7157 24.326 34.9625 23.7853C34.2092 23.2447 33.3236 22.9181 32.3996 22.8404C31.4757 22.7626 30.548 22.9365 29.7149 23.3437C28.8819 23.7509 28.1747 24.376 27.6685 25.1528C27.1622 25.9297 26.8758 26.8291 26.8397 27.7556C26.8036 28.6821 27.0191 29.6011 27.4633 30.4149C27.9075 31.2288 28.5638 31.9071 29.3626 32.3779C30.1614 32.8487 31.0728 33.0944 32 33.0888L31.9777 33.0555ZM47.5111 32.5333V33.0111H48.0444C48.9593 33.0019 49.8547 32.7462 50.6365 32.2711C51.4183 31.7959 52.0575 31.1187 52.4869 30.3108C52.9163 29.503 53.12 28.5943 53.0765 27.6805C53.033 26.7666 52.7439 25.8814 52.2397 25.118C51.7355 24.3545 51.0349 23.7412 50.2115 23.3424C49.3881 22.9436 48.4724 22.7742 47.5608 22.852C46.6492 22.9297 45.7755 23.2518 45.0315 23.7843C44.2876 24.3168 43.7009 25.0399 43.3333 25.8777C44.5811 26.4871 45.6336 27.4332 46.3719 28.6094C47.1102 29.7855 47.5048 31.1447 47.5111 32.5333ZM44.7666 38.2777C46.9758 38.715 49.1119 39.4632 51.1111 40.5C51.3927 40.6547 51.6478 40.8535 51.8666 41.0888H57.7777V37.2888C57.7788 37.1431 57.7401 36.9998 57.6657 36.8745C57.5912 36.7492 57.484 36.6466 57.3555 36.5777C54.4757 35.0714 51.2722 34.2896 48.0222 34.3H47.2889C46.9038 35.8652 46.0182 37.2619 44.7666 38.2777ZM27.2555 43.2444C27.2535 42.6848 27.4046 42.1353 27.6925 41.6555C27.9804 41.1756 28.3941 40.7837 28.8889 40.5222C30.8881 39.4854 33.0241 38.7372 35.2333 38.3C33.9878 37.2928 33.1028 35.9086 32.7111 34.3555H31.9777C28.7278 34.3452 25.5242 35.127 22.6444 36.6333C22.5159 36.7021 22.4087 36.8047 22.3343 36.9301C22.2599 37.0554 22.2211 37.1986 22.2222 37.3444V44.4444H27.2555V43.2444ZM43.8444 49.6555H50.4666V51.2111H43.8444V49.6555Z" fill="#FAFAFA"/>
<path d="M56.4556 43.6224H48.8223V42.5113C48.8223 42.2166 48.7052 41.934 48.4968 41.7256C48.2884 41.5172 48.0058 41.4002 47.7111 41.4002C47.4165 41.4002 47.1338 41.5172 46.9255 41.7256C46.7171 41.934 46.6 42.2166 46.6 42.5113V43.6224H44.4445V40.478C42.9826 40.171 41.4937 40.0109 40 40.0002C36.4931 39.9856 33.0363 40.8326 29.9334 42.4669C29.7952 42.5386 29.6795 42.6471 29.5991 42.7804C29.5187 42.9137 29.4767 43.0667 29.4778 43.2224V49.4557H37.3778V56.2224C37.3778 56.5171 37.4949 56.7997 37.7032 57.0081C37.9116 57.2165 38.1942 57.3335 38.4889 57.3335H56.4556C56.7503 57.3335 57.0329 57.2165 57.2413 57.0081C57.4496 56.7997 57.5667 56.5171 57.5667 56.2224V44.7335C57.5667 44.4388 57.4496 44.1562 57.2413 43.9478C57.0329 43.7395 56.7503 43.6224 56.4556 43.6224ZM55.3445 55.1335H39.6V45.8446H46.6V46.8557C46.6 47.1504 46.7171 47.433 46.9255 47.6414C47.1338 47.8498 47.4165 47.9669 47.7111 47.9669C48.0058 47.9669 48.2884 47.8498 48.4968 47.6414C48.7052 47.433 48.8223 47.1504 48.8223 46.8557V45.8446H55.3445V55.1335Z" fill="#FAFAFA"/>
</svg>
