<svg width="80" height="80" viewBox="0 0 80 80" fill="none" xmlns="http://www.w3.org/2000/svg">
<rect width="80" height="80" rx="12" fill="#0A1F33"/>
<path d="M56.25 28.75H50V26.5625C50 26.3906 49.8594 26.25 49.6875 26.25H47.5C47.3281 26.25 47.1875 26.3906 47.1875 26.5625V28.75H41.4062V26.5625C41.4062 26.3906 41.2656 26.25 41.0938 26.25H38.9062C38.7344 26.25 38.5938 26.3906 38.5938 26.5625V28.75H32.8125V26.5625C32.8125 26.3906 32.6719 26.25 32.5 26.25H30.3125C30.1406 26.25 30 26.3906 30 26.5625V28.75H23.75C23.0586 28.75 22.5 29.3086 22.5 30V52.5C22.5 53.1914 23.0586 53.75 23.75 53.75H56.25C56.9414 53.75 57.5 53.1914 57.5 52.5V30C57.5 29.3086 56.9414 28.75 56.25 28.75ZM36.5625 46.875C36.5625 47.0469 36.4219 47.1875 36.25 47.1875H29.0625C28.8906 47.1875 28.75 47.0469 28.75 46.875V45C28.75 44.8281 28.8906 44.6875 29.0625 44.6875H36.25C36.4219 44.6875 36.5625 44.8281 36.5625 45V46.875ZM36.5625 41.5625C36.5625 41.7344 36.4219 41.875 36.25 41.875H29.0625C28.8906 41.875 28.75 41.7344 28.75 41.5625V39.6875C28.75 39.5156 28.8906 39.375 29.0625 39.375H36.25C36.4219 39.375 36.5625 39.5156 36.5625 39.6875V41.5625ZM51.1914 37.9961L44.7461 46.9297C44.6886 47.0095 44.6129 47.0746 44.5252 47.1194C44.4376 47.1643 44.3406 47.1877 44.2422 47.1877C44.1438 47.1877 44.0467 47.1643 43.9591 47.1194C43.8715 47.0746 43.7958 47.0095 43.7383 46.9297L39.2773 40.75C39.1289 40.543 39.2773 40.2539 39.5312 40.2539H41.6758C41.875 40.2539 42.0625 40.3516 42.1797 40.5117L44.2422 43.3672L48.293 37.7539C48.4102 37.5898 48.5977 37.4961 48.7969 37.4961H50.9375C51.1914 37.5 51.3398 37.7891 51.1914 37.9961Z" fill="#FAFAFA"/>
</svg>
